<?xml version="1.0" encoding="utf-8"?>
<!-- Generator: Adobe Illustrator 27.7.0, SVG Export Plug-In . SVG Version: 6.00 Build 0)  -->
<svg version="1.1" id="Layer_1" xmlns="http://www.w3.org/2000/svg" xmlns:xlink="http://www.w3.org/1999/xlink" x="0px" y="0px"
	 viewBox="0 0 209 183" style="enable-background:new 0 0 209 183;" xml:space="preserve">
<style type="text/css">
	.st0{fill:#02AC64;stroke:#000000;stroke-width:1.3309;stroke-linecap:round;stroke-linejoin:round;}
	.st1{fill:none;stroke:#000000;stroke-width:1.3309;stroke-linecap:round;stroke-linejoin:round;}
	.st2{fill:#FEE200;stroke:#000000;stroke-width:1.3309;stroke-linecap:round;stroke-linejoin:round;}
	.st3{fill:#02AC64;stroke:#000000;stroke-width:3.15;stroke-linecap:round;stroke-linejoin:round;}
	.st4{fill:none;stroke:#000000;stroke-width:3.15;stroke-linecap:round;stroke-linejoin:round;}
	.st5{fill:#FEE200;stroke:#000000;stroke-width:3.15;stroke-linecap:round;stroke-linejoin:round;}
	.st6{fill:#E95B1A;stroke:#000000;stroke-width:1.9036;stroke-linecap:round;stroke-linejoin:round;}
	.st7{fill:#FEE200;stroke:#000000;stroke-width:1.9036;stroke-linecap:round;stroke-linejoin:round;}
	.st8{fill:#0077BA;stroke:#000000;stroke-width:1.9036;stroke-linecap:round;stroke-linejoin:round;}
	.st9{fill:#F5BFDA;stroke:#000000;stroke-width:1.9036;stroke-linecap:round;stroke-linejoin:round;}
	.st10{fill:#FEF9F7;stroke:#000000;stroke-width:1.9036;stroke-linecap:round;stroke-linejoin:round;}
	.st11{fill:#02AC64;stroke:#000000;stroke-width:1.9036;stroke-linecap:round;stroke-linejoin:round;}
	.st12{fill:#E95B1A;stroke:#000000;stroke-width:1.2845;stroke-linecap:round;stroke-miterlimit:10;}
	.st13{fill:#0077BA;stroke:#000000;stroke-width:1.2845;stroke-linecap:round;stroke-miterlimit:10;}
	.st14{fill:#FEF9F7;stroke:#000000;stroke-width:1.2845;stroke-linecap:round;stroke-miterlimit:10;}
	.st15{fill:#F5BFDA;stroke:#000000;stroke-width:1.2845;stroke-linecap:round;stroke-miterlimit:10;}
	.st16{fill:none;stroke:#000000;stroke-width:1.2845;stroke-linecap:round;stroke-miterlimit:10;}
	.st17{fill:#EEF5FF;}
	.st18{fill:#FFD7E7;}
	.st19{fill:#FFFFFF;}
	.st20{fill:#FFE029;}
	.st21{fill:#E95B1A;stroke:#000000;stroke-width:3.15;stroke-linecap:round;stroke-miterlimit:10;}
	.st22{fill:#F5BFDA;stroke:#000000;stroke-width:3.15;stroke-linecap:round;stroke-miterlimit:10;}
	.st23{fill:#FEF9F7;stroke:#000000;stroke-width:3.15;stroke-linecap:round;stroke-linejoin:round;}
	.st24{fill:none;stroke:#000000;stroke-width:6;stroke-linecap:round;stroke-linejoin:round;}
	.st25{fill:#F5BFDA;stroke:#020202;stroke-width:1.5088;stroke-miterlimit:10;}
</style>
<g id="Layer_2_00000023247827969182370410000018141136386226307490_">
	<g id="Layer_1-2_00000072965678747362211950000008301771599633310385_">
		<path class="st0" d="M-195.4,450.1c0.7-0.5,1.6,0.3,2.1,1c0.5,0.7,1.6,1.1,2.7,0.6c1.9-0.9,3.3-2,2.4,1.3
			c-0.2,0.4-0.3,0.9-0.3,1.4c0,0.8,0.7,1.4,1.4,1.9c0.7,0.5,1.4,0.8,1.9,1.4c0.2,0.2,0.3,0.4,0.3,0.7c-0.1,0.5-0.8,0.6-1.4,0.6
			l-3.4-0.3c-0.2,0-0.4,0-0.6,0.1c-0.2,0.1-0.2,0.3-0.3,0.5c-0.3,1.2-0.8,2.4-1.4,3.5c-0.2,0.4-0.5,0.8-1,0.7
			c-0.2-0.1-0.3-0.2-0.4-0.3c-0.6-0.8-0.9-1.9-0.6-3c0.1-0.3,0.2-0.5,0.1-0.8c-0.1-0.4-0.4-0.8-0.8-0.8c-0.7-0.3-1.6-0.2-2.4-0.4
			s-1.6-1-1.3-1.7c0.5-1.4,2.6-0.3,3.3-1.4C-194.3,454.1-195.3,451.2-195.4,450.1z"/>
		<path class="st0" d="M-135.4,406.8c0.6,0.6,0,1.6-0.7,2.2c-0.6,0.6-0.9,1.7-0.1,2.7c1.2,1.7,2.5,2.9-0.9,2.5
			c-0.5-0.1-0.9-0.1-1.4,0c-0.8,0.2-1.3,0.9-1.6,1.6c-0.3,0.7-0.5,1.6-1.1,2.2c-0.1,0.2-0.4,0.3-0.6,0.3c-0.5,0-0.7-0.7-0.8-1.2
			l-0.3-3.4c0-0.2-0.1-0.4-0.2-0.6c-0.2-0.1-0.4-0.2-0.5-0.2c-1.3-0.1-2.5-0.3-3.7-0.8c-0.4-0.1-0.9-0.4-0.8-0.9
			c0.1-0.2,0.1-0.3,0.3-0.4c0.7-0.8,1.8-1.2,2.8-1.1c0.3,0.1,0.5,0.1,0.8,0c0.4-0.2,0.6-0.5,0.7-0.9c0.2-0.8-0.1-1.6,0-2.4
			s0.7-1.7,1.5-1.6c1.5,0.3,0.8,2.5,1.9,3.1C-139.1,408.6-136.5,407.1-135.4,406.8z"/>
		<path class="st0" d="M-121.6,443.3c0.7-0.5,1.6,0.3,2.1,1c0.5,0.7,1.5,1.2,2.7,0.6c1.9-0.9,3.3-2,2.4,1.3
			c-0.2,0.4-0.3,0.9-0.3,1.4c0,0.8,0.7,1.4,1.4,1.9c0.7,0.5,1.4,0.8,1.9,1.4c0.2,0.2,0.2,0.5,0.2,0.7c-0.1,0.5-0.8,0.6-1.4,0.5
			l-3.4-0.3c-0.2-0.1-0.4,0-0.6,0.1c-0.1,0.1-0.2,0.3-0.3,0.5c-0.3,1.2-0.8,2.4-1.4,3.5c-0.2,0.4-0.5,0.8-1,0.7
			c-0.4-0.1-0.3-0.2-0.4-0.3c-0.6-0.8-0.9-1.9-0.6-3c0.1-0.2,0.1-0.5,0.1-0.8c-0.1-0.4-0.4-0.8-0.8-0.9c-0.8-0.3-1.6-0.2-2.4-0.4
			s-1.6-1-1.3-1.7c0.5-1.4,2.6-0.3,3.3-1.4C-120.5,447.3-121.5,444.5-121.6,443.3z"/>
		<path class="st1" d="M-146,465.7c1.6,0.8,3.5,1,5.2,1.6c1.7,0.6,3.2,1.4,4.9,1.7"/>
		<path class="st1" d="M-145.3,472.5c0.5-1.2,1.2-2.4,1.9-3.5c0.3-0.4,0.6-0.8,1-1.1c0.4-0.3,1-0.4,1.4-0.2c0.4,0.3,0.7,0.7,0.9,1.1
			c0.8,1.5,1.5,3.1,2.1,4.8"/>
		<path class="st1" d="M-141,467c0-1.7,0.1-3.4,0.3-5.1"/>
		<path class="st1" d="M-225.8,475.7c1.9,0,3.6-0.4,5.5-0.5c1.8-0.1,3.5,0.1,5.2-0.2"/>
		<path class="st1" d="M-222.6,481.7c0-1.3,0.2-2.6,0.5-3.9c0.1-0.5,0.3-1,0.5-1.4c0.3-0.4,0.8-0.7,1.3-0.7c0.5,0.1,0.9,0.3,1.3,0.7
			c1.3,1.2,2.5,2.4,3.7,3.7"/>
		<path class="st1" d="M-220.6,474.9c-0.7-1.6-1.2-3.2-1.6-4.9"/>
		<path class="st1" d="M-184.2,425.5c1.8,0.3,3.6,0,5.5,0.2c1.8,0.1,3.4,0.5,5.2,0.4"/>
		<path class="st1" d="M-181.8,431.9c0.2-1.3,0.5-2.6,1-3.8c0.2-0.5,0.4-0.9,0.7-1.3c0.3-0.4,0.8-0.6,1.3-0.5
			c0.5,0.1,0.9,0.4,1.2,0.8c1.1,1.3,2.2,2.7,3.3,4.1"/>
		<path class="st1" d="M-179,425.4c-0.5-1.6-0.8-3.3-0.9-5"/>
		<path class="st2" d="M-114.3,468c-0.6-1.2-1.8-2.1-3.1-2.3c-1-0.1-3-0.2-3.8,0.6c-0.8,0.8-0.6,3.3,0,4.5c0.6,1.2,1.6,2.2,2.7,2.8
			c0.9,0.5,2,0.8,3,0.3c0.9-0.5,1.4-1.9,1.5-3.1C-113.9,469.7-113.9,468.9-114.3,468z"/>
		<path class="st2" d="M-146.5,438.6c-1.1-0.6-2.7-0.3-3.7,0.3c-1.1,0.5-0.5,0.8-0.8,1.4c-0.2,0.5-0.2,1,0.1,1.5
			c0.2,0.3,0.5,0.6,0.8,0.8c0.8,0.5,1.7,0.8,2.7,0.9c0.8,0.1,1.8,0,2.4-0.6c0.5-0.6,0.5-1.6,0.2-2.4
			C-145.2,439.7-145.8,439-146.5,438.6z"/>
		<path class="st2" d="M-205,426.9c-1.1-0.6-2.7-0.3-3.7,0.3s-0.6,0.8-0.8,1.4c-0.2,0.5-0.2,1,0.1,1.5c0.2,0.3,0.5,0.6,0.8,0.8
			c0.8,0.5,1.8,0.8,2.7,0.9c0.8,0.1,1.8,0,2.3-0.6c0.5-0.6,0.5-1.6,0.2-2.4C-203.7,428-204.3,427.3-205,426.9z"/>
		<path class="st2" d="M-160.4,462.3c-1.1-0.6-2.7-0.3-3.7,0.3s-0.5,0.8-0.8,1.4c-0.2,0.5-0.2,1,0.1,1.5c0.2,0.3,0.5,0.6,0.8,0.7
			c0.8,0.5,1.7,0.8,2.7,1c0.8,0.1,1.8,0,2.4-0.6s0.5-1.6,0.2-2.4C-159.1,463.4-159.7,462.7-160.4,462.3z"/>
		<path class="st2" d="M-189.9,476.8c2.3-2.4-2-6-4.2-4.1c-1.1,0.9-1.4,2.8-0.5,4s2.3,1.2,3.5,0.8
			C-190.6,477.4-190.2,477.1-189.9,476.8z"/>
		<path d="M-164.1,445.5c-1.5,0-1.7,2.4-0.2,2.4S-162.5,445.5-164.1,445.5z"/>
		<path d="M-175.6,450.3l-1.3-0.3c-0.6-0.2-1.3,0.1-1.5,0.7c-0.2,0.5,0,1,0.4,1.4c0.7,1.2,2.8,1.2,3.1-0.3
			C-174.7,451.2-174.9,450.4-175.6,450.3z"/>
		<path d="M-208.6,451.9c0-0.2-0.1-0.5-0.3-0.7c-0.2-0.3-0.5-0.4-0.8-0.4h-0.1c-1.5-0.5-3,1-2.4,2.5c0.1,0.2,0.2,0.3,0.4,0.5
			c0.1,0.4,0.3,0.7,0.5,1c0.9,1,2.7,0.8,3.1-0.6C-208,453.3-208.2,452.5-208.6,451.9z"/>
		<path d="M-162.8,410.8c-0.1-1.2-1-2.1-2.1-2.2c-1.1-0.1-2.2,0.6-2.2,1.8c0,0.5,0.3,0.9,0.7,1.1c0,1.1,0.6,2.1,1.7,2.2
			S-162.7,412-162.8,410.8z"/>
		<path d="M-189.5,409.3c-0.3-0.1-0.7-0.1-0.9,0.1c-0.2-0.1-0.4-0.1-0.6-0.1c-0.6,0.1-1,0.8-0.9,1.4c0.2,1,0.9,1.8,1.8,2.3
			c0.4,0.3,1,0.3,1.4-0.1c0.9-0.9,0.8-2.3,0-3.1C-188.9,409.6-189.2,409.4-189.5,409.3z"/>
		<path d="M-171.9,471.6L-171.9,471.6c-0.4-0.4-0.9-0.5-1.4-0.3c-0.6,0.3-0.9,1.1-0.6,1.8c0.1,0.1,0.1,0.2,0.2,0.3
			c0.5,0.6,1.7,0.7,2.1-0.1C-171.2,472.7-171.4,472-171.9,471.6z"/>
		<path d="M-127,481.2l-1.5-0.9c-1.3-0.8-2.6,1.2-1.3,2l1.5,0.9C-127.1,484-125.7,482-127,481.2z"/>
		<path d="M-134.4,452.4c-1.5,0-1.7,2.4-0.2,2.4S-132.8,452.4-134.4,452.4z"/>
		<path d="M-182.7,396.1c-0.1,0.1,0,0.1-0.1,0.1c-1.5-0.1-1.7,2.3-0.1,2.4c0.9,0.1,1.8-0.4,2.2-1.2
			C-180,396.1-181.9,394.8-182.7,396.1z"/>
		<path d="M-226.6,444.4h-1.2c-1.5,0-1.7,2.4-0.2,2.4h1.2C-225.3,446.7-225.1,444.4-226.6,444.4z"/>
		<path d="M-107.7,481.8h-0.3c-1.5,0-1.7,2.4-0.2,2.4h0.3C-106.4,484.2-106.2,481.8-107.7,481.8z"/>
		<path d="M-125.9,428c-0.6-1.1-2-1.6-3.1-1c-0.1,0.1-0.3,0.2-0.4,0.3c-1.1,0.8-0.8,2.6,0.3,3c0.3,0.4,0.8,0.7,1.4,0.7
			C-126.2,430.9-125.3,429.2-125.9,428z"/>
		<path d="M-151.8,426.3c-0.3-0.7-1.1-1.1-1.9-0.9c-1.4,0.2-1.1,2.1,0,2.3C-152.6,427.9-151.2,427.5-151.8,426.3z"/>
		<path d="M-149.6,477.2l-0.3-0.3c-0.3-0.6-1.1-0.7-1.6-0.4c-0.6,0.3-0.7,1.1-0.4,1.6c0.1,0.1,0.1,0.2,0.2,0.3l0.3,0.3
			c0.5,0.5,1.2,0.5,1.7,0.1C-149.2,478.4-149.2,477.7-149.6,477.2C-149.6,477.2-149.6,477.2-149.6,477.2z"/>
		<path d="M-202.1,483h-0.6c-1.5,0-1.7,2.4-0.2,2.4h0.6C-200.8,485.4-200.6,483-202.1,483z"/>
		<path d="M-167.7,435.4h-0.3c-1.5,0-1.7,2.4-0.2,2.4h0.3C-166.3,437.8-166.1,435.4-167.7,435.4z"/>
		<path d="M-192,437.2c-1.5,0-1.7,2.4-0.1,2.4C-190.6,439.6-190.5,437.2-192,437.2z"/>
		<path d="M-119.5,488.2c-1.5,0-1.7,2.4-0.2,2.4S-118,488.2-119.5,488.2z"/>
	</g>
</g>
<g id="Layer_2_00000152227035003436460150000012903086447133845432_">
	<g id="Layer_1-2_00000000204225196027041010000001099586878692587963_">
		<path class="st3" d="M-512.8,430.4c1.7-1.1,3.8,0.7,4.9,2.4c1.1,1.7,3.7,2.7,6.4,1.4c4.5-2.2,7.8-4.7,5.6,3.1
			c-0.4,1.1-0.7,2.2-0.7,3.3c0.1,1.9,1.7,3.4,3.3,4.5s3.4,1.9,4.6,3.4c0.4,0.4,0.6,1,0.6,1.6c-0.3,1.3-2,1.5-3.2,1.4l-8.1-0.8
			c-0.5-0.1-1,0-1.4,0.3c-0.4,0.2-0.5,0.7-0.6,1.2c-0.8,2.9-1.9,5.7-3.3,8.3c-0.4,0.9-1.3,2-2.3,1.6c-0.4-0.1-0.7-0.4-1-0.7
			c-1.5-2-2-4.6-1.4-7c0.3-0.6,0.4-1.3,0.3-1.9c-0.2-1-1-1.8-2-2c-1.7-0.7-3.7-0.5-5.6-0.9c-1.9-0.4-3.7-2.3-3-4.1
			c1.3-3.4,6.1-0.8,7.8-3.2C-510.2,439.9-512.6,433.1-512.8,430.4z"/>
		<path class="st3" d="M-370.8,328c1.4,1.5-0.1,3.8-1.6,5.2c-1.5,1.4-2.1,4-0.3,6.5c2.9,4.1,5.9,6.9-2.2,6c-1.1-0.2-2.2-0.3-3.3-0.1
			c-1.9,0.4-3.1,2.2-3.9,3.9c-0.8,1.7-1.3,3.7-2.7,5.1c-0.3,0.5-0.9,0.8-1.5,0.8c-1.3,0-1.7-1.6-1.8-2.9l-0.6-8.1
			c0-0.5-0.1-1-0.4-1.4c-0.4-0.2-0.8-0.4-1.3-0.4c-3-0.2-6-0.8-8.8-1.8c-0.9-0.3-2.1-1-2-2.1c0.1-0.4,0.3-0.7,0.6-1
			c1.7-1.8,4.2-2.8,6.7-2.6c0.6,0.1,1.3,0.1,1.9,0c0.9-0.4,1.5-1.2,1.7-2.2c0.4-1.9-0.2-3.8,0-5.7c0.2-1.9,1.7-4,3.5-3.7
			c3.6,0.8,1.8,6,4.5,7.3C-379.6,332.1-373.4,328.6-370.8,328z"/>
		<path class="st3" d="M-338.1,414.3c1.7-1.1,3.8,0.8,4.9,2.4c1.1,1.6,3.6,2.8,6.4,1.4c4.5-2.2,7.8-4.7,5.6,3.1
			c-0.5,1-0.7,2.2-0.7,3.3c0.1,1.9,1.7,3.4,3.3,4.5c1.6,1.1,3.4,1.9,4.6,3.4c0.4,0.5,0.5,1.1,0.5,1.7c-0.2,1.2-1.9,1.4-3.2,1.3
			l-8-0.7c-0.5-0.1-1-0.1-1.5,0.2c-0.3,0.3-0.5,0.8-0.6,1.2c-0.7,2.9-1.8,5.7-3.2,8.3c-0.5,0.9-1.3,2-2.3,1.7s-0.7-0.5-1-0.8
			c-1.5-2-2-4.6-1.4-7c0.1-0.6,0.2-1.2,0.3-1.8c-0.3-1-1-1.8-2-2.1c-1.8-0.7-3.8-0.5-5.6-0.9c-1.8-0.4-3.7-2.3-3-4.1
			c1.3-3.4,6.1-0.8,7.8-3.2C-335.5,423.8-337.9,417.1-338.1,414.3z"/>
		<path class="st4" d="M-395.9,467.4c3.9,1.8,8.3,2.3,12.4,3.7c4.1,1.4,7.5,3.3,11.5,4.1"/>
		<path class="st4" d="M-394.2,483.5c1.2-2.9,2.8-5.6,4.6-8.2c0.6-1,1.4-1.8,2.4-2.5c1-0.7,2.3-0.9,3.4-0.4c1,0.7,1.7,1.6,2.2,2.7
			c1.9,3.7,3.5,7.4,4.9,11.3"/>
		<path class="st4" d="M-384,470.4c-0.1-4,0.2-8.1,0.8-12.1"/>
		<path class="st4" d="M-584.7,490.9c4.4,0.1,8.6-1,12.9-1.2s8.2,0.3,12.2-0.4"/>
		<path class="st4" d="M-577.2,505.2c0.1-3.1,0.5-6.3,1.3-9.3c0.2-1.2,0.7-2.3,1.3-3.3c0.7-1,1.8-1.6,3-1.6c1.2,0.2,2.2,0.8,3,1.7
			c3.1,2.8,6,5.7,8.8,8.7"/>
		<path class="st4" d="M-572.5,489.2c-1.6-3.7-2.8-7.6-3.7-11.5"/>
		<path class="st4" d="M-486.2,372.2c4.3,0.7,8.6,0.1,12.9,0.4c4.3,0.3,8.1,1.3,12.2,1"/>
		<path class="st4" d="M-480.5,387.3c0.5-3.1,1.3-6.2,2.4-9.1c0.4-1.1,0.9-2.2,1.7-3.1c0.8-0.9,1.9-1.3,3.1-1.2c1.1,0.3,2.1,1,2.8,2
			c2.7,3.1,5.3,6.4,7.7,9.7"/>
		<path class="st4" d="M-474,372c-1.1-3.9-1.8-7.9-2.2-11.9"/>
		<path class="st5" d="M-320.9,472.8c-1.5-2.9-4.2-4.9-7.3-5.5c-2.4-0.3-7-0.5-8.9,1.4c-1.9,1.9-1.4,7.9-0.1,10.7
			c1.5,2.8,3.7,5.2,6.5,6.7c2.1,1.2,4.8,2,7,0.8s3.2-4.5,3.5-7.3C-319.9,476.8-319.9,474.9-320.9,472.8z"/>
		<path class="st5" d="M-397,403.1c-2.5-1.5-6.3-0.6-8.8,0.7c-2.5,1.3-1.3,2-1.8,3.2c-0.4,1.1-0.4,2.4,0.2,3.5
			c0.5,0.7,1.2,1.3,2,1.8c1.9,1.2,4.1,1.9,6.3,2.2c2,0.3,4.3,0.1,5.6-1.4c1.3-1.5,1.2-3.8,0.4-5.6
			C-393.9,405.7-395.3,404.1-397,403.1z"/>
		<path class="st5" d="M-535.5,375.5c-2.6-1.5-6.4-0.6-8.8,0.8c-2.4,1.4-1.4,1.9-1.9,3.2c-0.4,1.1-0.4,2.4,0.2,3.5
			c0.6,0.7,1.2,1.3,2,1.8c2,1.1,4.1,1.9,6.4,2.2c1.9,0.2,4.2,0,5.5-1.5c1.3-1.5,1.2-3.8,0.4-5.6
			C-532.5,378.1-533.8,376.5-535.5,375.5z"/>
		<path class="st5" d="M-429.9,459.2c-2.5-1.5-6.3-0.6-8.8,0.8s-1.3,1.9-1.8,3.2c-0.4,1.1-0.4,2.4,0.2,3.5c0.5,0.7,1.2,1.3,2,1.7
			c1.9,1.2,4.1,2,6.3,2.3c2,0.2,4.3,0,5.6-1.5c1.3-1.5,1.2-3.8,0.4-5.6C-426.8,461.8-428.2,460.2-429.9,459.2z"/>
		<path class="st5" d="M-499.8,493.6c5.4-5.7-4.7-14.1-9.9-9.7c-2.5,2.1-3.2,6.7-1.2,9.4c2,2.7,5.5,2.8,8.4,1.9
			C-501.5,494.9-500.5,494.4-499.8,493.6z"/>
		<path d="M-438.6,419.6c-3.6,0-4.1,5.7-0.4,5.7S-435,419.6-438.6,419.6z"/>
		<path d="M-465.9,430.8l-3-0.6c-1.4-0.5-3,0.3-3.5,1.7c-0.4,1.2,0,2.4,0.9,3.2c1.6,2.8,6.6,2.9,7.4-0.7
			C-463.8,433-464.3,431.2-465.9,430.8z"/>
		<path d="M-544,434.6c-0.1-0.6-0.3-1.1-0.7-1.6c-0.5-0.6-1.2-0.9-2-0.9h-0.2c-3.5-1.2-7.2,2.4-5.6,5.8c0.2,0.4,0.6,0.8,0.9,1.1
			c0.2,0.9,0.6,1.7,1.2,2.3c2.2,2.4,6.5,2,7.4-1.4C-542.6,438.1-543,436.2-544,434.6z"/>
		<path d="M-435.7,337.4c-0.1-2.7-2.3-5-5-5.2c-2.5-0.2-5.2,1.5-5.2,4.3c0,1.2,0.7,2.2,1.7,2.7c0,2.5,1.4,5,4,5.2
			C-437.6,344.6-435.4,340.3-435.7,337.4z"/>
		<path d="M-498.7,333.8c-0.7-0.3-1.5-0.2-2.2,0.2c-0.5-0.2-1-0.3-1.5-0.2c-1.5,0.3-2.5,1.8-2.2,3.3c0.6,2.3,2.2,4.3,4.3,5.4
			c1.1,0.7,2.4,0.6,3.4-0.2c2-2,2-5.3,0-7.4C-497.4,334.4-498,334.1-498.7,333.8z"/>
		<path d="M-457.1,481.3h-0.1c-0.8-1-2.1-1.3-3.2-0.7c-1.5,0.8-2.2,2.6-1.4,4.1c0.1,0.3,0.3,0.5,0.5,0.8c1.3,1.4,4,1.6,5-0.3
			C-455.5,483.9-455.8,482.2-457.1,481.3z"/>
		<path d="M-350.9,503.9l-3.5-2.2c-3-1.9-6.1,2.8-3.1,4.7l3.5,2.2C-351,510.6-347.8,505.9-350.9,503.9z"/>
		<path d="M-368.3,435.8c-3.6,0-4,5.6-0.4,5.6S-364.7,435.8-368.3,435.8z"/>
		<path d="M-482.7,302.6c-0.2,0.2-0.1,0.3-0.3,0.3c-3.6-0.2-4,5.4-0.3,5.6c2.1,0.1,4.2-1,5.3-2.8
			C-476.2,302.6-480.9,299.5-482.7,302.6z"/>
		<path d="M-586.7,416.8h-2.8c-3.6,0-4,5.6-0.4,5.6h2.8C-583.5,422.4-583,416.8-586.7,416.8z"/>
		<path d="M-305.2,505.5h-0.7c-3.6,0-4,5.6-0.4,5.6h0.7C-302,511.1-301.6,505.5-305.2,505.5z"/>
		<path d="M-348.2,378c-1.4-2.6-4.6-3.7-7.3-2.3c-0.3,0.2-0.6,0.4-0.9,0.6c-2.5,2-1.8,6.1,0.8,7c0.8,1,2,1.6,3.2,1.6
			C-349,385-346.8,381-348.2,378z"/>
		<path d="M-409.6,374.1c-0.8-1.7-2.6-2.6-4.4-2.2c-3.2,0.5-2.7,4.9-0.1,5.4C-411.5,377.8-408.2,377-409.6,374.1z"/>
		<path d="M-404.4,494.5l-0.7-0.7c-0.8-1.3-2.5-1.7-3.9-0.9s-1.7,2.5-0.9,3.9c0.2,0.2,0.3,0.5,0.6,0.7l0.7,0.8
			c1.1,1.1,2.8,1.2,4,0.2C-403.5,497.4-403.3,495.7-404.4,494.5C-404.3,494.6-404.4,494.5-404.4,494.5z"/>
		<path d="M-528.7,508.3h-1.4c-3.6,0-4,5.6-0.4,5.6h1.4C-525.5,513.9-525,508.3-528.7,508.3z"/>
		<path d="M-447.1,395.7h-0.7c-3.6,0-4,5.6-0.4,5.6h0.7C-443.9,401.3-443.5,395.7-447.1,395.7z"/>
		<path d="M-504.8,399.9c-3.6,0-4,5.7-0.3,5.7S-501.1,399.9-504.8,399.9z"/>
		<path d="M-333.2,520.5c-3.6,0-4,5.6-0.4,5.6S-329.6,520.5-333.2,520.5z"/>
	</g>
</g>
<g id="Layer_2_00000103949552124533376090000009978707424475355026_">
	<g id="Layer_1-2">
		<path class="st6" d="M-643.1,197c8.3,0.8,16.8,2.4,25.1,0.7c16.6-3.2,27.1-17.1,32.1-31.9c5-15,4.6-29.5,3.7-44.6
			c-0.6-9.8-1.3-21.2-3.9-30.7c-4.3-15.5,2.6-29.6,16-36.9c4.8-2.6,10.1-3.7,15.5-3.7c13-0.3,25.9,3.8,38.5,6.5
			c15.6,3.2,30.5,7.7,46,11.1c14.1,3.2,29.1,5,42.9-0.6c14.6-5.8,26.5-20.1,26.3-35.9c-0.1-3.7-0.7-7.5-1.5-11.2
			c-3.6-18.1-8.7-35.9-15.4-53.2c-3.5-9.1-7.4-18.5-7.6-28.2c-0.2-9.9,4.6-20.3,13.8-23.8c4.2-1.6,8.7-1.4,13-1
			c15.5,1.5,30.3,7.5,44.8,13.6c1.6-2.3,3-4.6,4.6-6.8c-13.3-9.6-28.5-16.5-44.5-20c-8.1-1.7-16-2.2-24.2-0.4
			c-8.1,1.9-13.8,10-17.8,16.7c-5.3,9.2-2.6,19.4-1.6,29.4c0.1,1.8,0.4,3.5,0.8,5.2c0.5,1.5,1,3.2,1.8,4.7
			c5.9,13.1,11.8,27.7,14.6,41.8c0.7,3.6,2.1,7,2.7,10.5c0.8,3.4,0.1,8.4-0.3,12.5c-0.8,9.1-4,17.8-10.3,24.3
			c-6.3,6.7-15.3,9.9-25,11.8c-12.5,2.4-22.8-1.5-35-2.2c-14.3-0.9-28.9-5.8-43-9.2c-12.1-2.8-24.5-5.6-36.7-4s-24.6,8.8-28.8,20.5
			c-2.3,6.5-1.9,13.5-1.3,20.5c1.2,12.2,3.1,24.4,5.7,36.3c3,13.5,1.3,31.9-4.8,44.3c-2.4,4.8-5.4,9.1-9.2,12.8
			c-5.9,5.9-13.3,10-21.6,11.6c-9.5,1.7-21.2-0.5-30.9-1c-5.8-0.3-12-0.4-17.1,2.3c-1.9,1-3.5,2.5-4.9,4c2.6,2.9,5.2,5.7,7.8,8.6
			c1.8-1.8,3.9-3.2,6.2-4.3C-658.4,193.7-651.1,196.2-643.1,197z"/>
		<path class="st7" d="M-668.3,171.8c6.5,0.6,12.6,2.7,19.1,3.4c10.8,1.3,25-0.6,32.2-9.8c7.2-9.2,9-23.7,9.3-35.4
			c0.2-13.3-0.7-26.6-2.8-39.7c-1.9-12.3-4.8-25.5,0.4-36.9c4.4-9.7,13.7-16.2,23.3-20.9c6.1-2.9,12.6-5.3,19.3-6.3
			c19.6-3,39,5.5,57.7,12.6c18.6,7,39.7,12.8,57.9,4.7c18.1-8.1,28.6-30.7,23-49.8c-2.7-9.3-8.7-17.4-12.7-26.3
			c-4.4-10-6.6-20.9-6.3-31.8c0.9-20.2,13-41.5,32.7-46.2c13.7-3.2,28,1.8,40.2,8.8c9.9,5.7,19.5,11,28.6,17.9c1.6-2,3.1-4,4.9-6.1
			l-13-7.5c-19.5-11.3-41.1-23-63.3-19c-12.6,2.3-23.5,9.5-30.7,20c-7.8,11.7-7.8,23.1-7.8,36.7c0,10.2,2.9,20.4,6.3,30
			c3.4,9.6,9,18.8,10.4,28.7c2.3,15.7-3.2,31.1-18.7,37.6c-12.2,5.1-27-0.9-38.2-5.9c-23.2-10.5-48.6-18.4-73.8-14.9
			S-620.2,37-624.8,62c-3.9,21.5,6.5,38.8,9.1,59.6c1.5,12.4-1.1,26.1-10.3,34.4c-6.1,5.5-14.4,7.8-22.7,8.4
			c-8.3,0.6-16.3-0.4-24.6-1c-7.2-0.5-14.6-0.2-20.9,3.3c-1.7,1-3.4,2.4-4.7,3.9c1,1.3,1.9,2.6,3,3.7c2.1,2.7,4.4,5.3,6.5,7.8
			c0.8-1.8,1.7-3.6,3-5.1C-681.8,172.5-674.7,171.3-668.3,171.8z"/>
		<path class="st8" d="M-628.8,204.2c6.9,1.9,14.1,3.2,21.1,3c11.9-0.5,28.8-5.6,33.3-18.2c2.9-8.2,2.8-18.7,2.6-27.1
			c-0.2-8.5-0.5-17.8-2-26.8c-2.3-12.6-2.7-25.3-2.7-37.9c0-8.4,0.5-20.9,8.1-26.2c6.1-4.3,13.9-5,21.1-4.9
			c20.2,0.2,39.9,4.8,59.3,10c12.6,3.3,25.2,6.8,38.2,7.6c13,0.8,26.1-1.8,36.9-9c9.1-6.2,18.1-13.6,22.7-23.6
			c7-15.3,2.7-33.4-4.6-48.6s-17.2-29.1-22.1-45.1c-1.4-4.8-4-11.3-3.5-16.4c0.5-5.1,4.3-13.5,8.6-16.4c5.4-3.8,14.6-3.8,20.9-2.8
			c9.2,1.5,17.9,5.8,26.2,9.9l6.3,3.2c1.4-2.4,2.8-4.9,4.3-7.3c-14.4-6.2-29.1-12.1-44.8-13.6c-4.3-0.4-8.8-0.5-13,1
			c-9.1,3.5-13.9,14-13.8,23.8s4.1,19.1,7.6,28.2c6.7,17.3,11.8,35,15.4,53.2c0.9,3.7,1.3,7.4,1.5,11.2
			c0.2,15.8-11.7,30.1-26.3,35.9c-13.8,5.4-28.6,3.7-42.9,0.6c-15.5-3.3-30.4-7.9-46-11.1c-12.7-2.8-25.3-6.8-38.5-6.5
			c-5.4,0-10.7,1.1-15.5,3.7c-13.3,7.4-20.3,21.5-16,36.9c2.6,9.5,3.3,20.9,3.9,30.7c1.1,15.1,1.2,30.1-3.7,44.6
			c-4.8,14.5-15.6,28.7-32.1,31.9c-8.4,1.6-16.7,0.1-25.1-0.7c-8.3-0.8-15.3-3.2-23.2,0.1c-2.3,1-4.4,2.4-6.2,4.3
			c3.8,4.2,7.8,8.3,11.8,12.5l0.7-1.5C-652.3,199.5-641.4,200.9-628.8,204.2z"/>
		<path class="st9" d="M-675.4,188.6c5.1-2.8,11.3-2.6,17.1-2.3c9.7,0.5,21.4,2.7,30.9,1c8.2-1.6,15.7-5.7,21.6-11.6
			c3.7-3.7,6.9-8.1,9.2-12.8c6-12.4,7.8-30.8,4.8-44.3c-2.6-12-4.5-24.1-5.7-36.3c-0.5-6.9-1-13.9,1.3-20.5
			c4.2-11.7,16.6-18.9,28.8-20.5c12.3-1.6,24.7,1.2,36.7,4c14,3.4,28.7,8.3,43,9.2c12.2,0.7,22.4,4.6,35,2.2
			c9.5-1.9,18.1-4.3,25-11.8c6.9-7.3,9.5-15.4,10.3-24.3c0.4-4.2,1-8.5,0.3-12.5c-0.8-4-2-6.9-2.7-10.5
			c-2.7-14.3-8.7-28.7-14.6-41.8c-0.8-1.5-1.3-3-1.8-4.7c-0.4-1.7-0.6-3.5-0.8-5.2c-1-10-3.8-20.3,1.6-29.4
			c4-6.8,9.9-15.1,17.8-16.7c7.9-1.7,15.9-1.4,24.2,0.4c16,3.5,31.1,10.3,44.5,20l3-4.1c-9.1-6.9-18.8-12.2-29-18
			c-12.1-7-26.4-12.1-40.2-8.8c-19.7,4.7-31.8,26-32.7,46.2c-0.3,10.9,1.7,21.7,6.3,31.8c4.1,8.8,9.9,17,12.7,26.3
			c5.6,19.2-4.8,41.7-23,49.8c-18.3,8.1-39.3,2.3-57.9-4.7c-18.6-7.1-37.9-15.6-57.7-12.6c-6.7,0.9-13.1,3.3-19.3,6.3
			c-9.6,4.6-18.9,11.1-23.3,20.9c-5.2,11.4-2.2,24.6-0.4,36.9c2.1,13.1,3.1,26.4,2.8,39.7c-0.1,11.8-1.8,25.7-9.3,35.4
			s-21.2,11.2-32.2,9.8c-6.5-0.8-12.7-2.8-19.1-3.4c-6.5-0.6-13.5,0.7-17.8,5.5c-1.3,1.5-2.4,3.3-3,5.1c2.9,3.5,6,6.9,9,10.3
			C-678.9,191.1-677.2,189.8-675.4,188.6z"/>
		<path class="st10" d="M-499.4,84.1c28.7,7.2,61.9,18.7,91.7,17.2c31.4-1.5,55.6-28.2,54.3-59.6c-0.2-2.7-0.5-5.3-0.9-7.9
			C-358.7,11.1-372-7.4-385.2-26c-5.2-7.5-10.7-15.6-11-24.8c-0.6-13,11-17.4,21.5-12c4.1,2.1,7.5,5,11.2,8c0.9-2,1.9-4.2,2.9-6.2
			c-7-4.4-14.3-8.6-22.5-10.3c-4.9-1-10-1-14.6,0.7c-4.6,1.7-8.7,5.2-10.2,9.9c-2,5.9,0.1,12.3,3.4,17.6
			c11,17.2,25.3,32.2,35.2,50.3c6.7,12,11,26.2,7.9,39.5c-2.8,11.9-11.2,22-21.3,29c-25.7,17.8-56.3,18.2-85.8,11.4
			c-18.1-4.2-35.9-10.2-54.3-12.9c-11.5-1.7-24.4-2.2-33.9,5.6c-5.4,4.6-6.6,12.4-6.8,19.3c-0.5,12.2,0.8,24.3,3.8,36.3
			c1.3,5.9,3.3,11.6,4.2,17.5c3.6,23.5-8.5,48.7-29.2,60.4c-14,7.9-33.6-0.8-49.6,0.8c-4.3,0.4-8.6,1.4-11.8,4.2
			c-1.7,1.6-3.2,3.6-4.1,5.9c2.7,2.5,5.4,5.1,8.1,7.6c0.8-1.7,1.8-3.1,3.2-4.5c3.4-3.5,8.4-4.8,13.3-4.9c7.2,0,13.2,3.3,20.1,4.5
			c6.9,1.3,14.6,2.2,21.7,1c12-2,26.7-9.5,34.8-18.7c19.1-22,12.8-54.7,6.1-80.4c-2.7-10.2-5.4-18.2-3.3-28.7s7.7-18.2,18.6-19.3
			C-518.1,80-508.7,81.7-499.4,84.1z"/>
		<path class="st11" d="M-646,218.2c3.3-2.9,7.5-3.8,11.8-4.2c15.9-1.6,35.6,7.1,49.6-0.8c20.8-11.7,32.9-36.9,29.2-60.4
			c-0.9-6-2.8-11.7-4.2-17.5c-3-11.8-4.2-24-3.8-36.3c0.2-7.1,1.4-14.8,6.8-19.3c9.5-7.8,22.4-7.3,33.9-5.6
			c18.4,2.7,36.1,8.7,54.3,12.9c29.6,6.9,60.2,6.6,85.8-11.4c10.1-7,18.5-17,21.3-29c3.1-13.5-1.2-27.5-7.9-39.5
			c-10-17.9-24.1-32.9-35.2-50.3c-3.3-5.3-5.5-11.7-3.4-17.6c1.5-4.7,5.6-8.2,10.2-9.9c4.6-1.7,9.8-1.7,14.6-0.7
			c8,1.6,15.5,5.8,22.5,10.3c0.7-1.5,1.6-3.1,2.4-4.5l-6.3-3.2c-8.3-4.2-17-8.4-26.2-9.9c-6.2-1-15.4-1.1-20.9,2.8
			c-4.3,3.1-7.9,11.3-8.6,16.4c-0.6,5.1,1.9,11.6,3.5,16.4c4.9,16.2,14.9,30.1,22.1,45.1c7.3,15.2,11.6,33.3,4.6,48.6
			c-4.6,10.1-13.6,17.4-22.7,23.6c-10.8,7.3-23.9,9.7-36.9,9c-13-0.8-25.5-4.3-38.2-7.6c-19.4-5.2-39.3-9.8-59.3-10
			c-7.4-0.1-15.2,0.6-21.1,4.9c-7.6,5.4-8.1,17.8-8.1,26.2c0.1,12.8,0.5,25.5,2.7,37.9c1.6,9,1.8,17.6,2,26.8
			c0.1,9,0.2,19.1-2.6,27.1c-4.5,12.6-21.3,17.7-33.3,18.2c-7.2,0.3-14.2-1.1-21.1-3c-12.7-3.4-23.5-4.7-31,7.9l-0.7,1.5
			c3.5,3.6,7.1,7.1,10.5,10.5C-649.2,222-647.9,219.9-646,218.2z"/>
	</g>
</g>
<g id="Layer_2_00000134953623673816283540000014254358174963370642_">
	<g id="Layer_1-2_00000172421607220736557290000017326384204368202420_">
		<path class="st12" d="M8.1,158.3c-2.2-15-4.4-35,5.4-47.5c7.2-9.3,18.5-16.3,23.1-27.2c2.5-5.9,2.6-13.2,5.5-18.7
			c3.3-6,8.2-10.9,14.2-14.2c5.5-3,11.9,0.2,17.5-2.2c5-2.2,5.4-9.3,4.9-13.8c-0.3-3.8-1.2-7.7-0.7-11.5C78.9,16,84.2,9.8,91.3,7.8
			c7.1-2,14.7,1.3,19.3,5.4s4.4,11.9,10,15.4c5.6,3.5,9.3,0.1,13.7-3.6s9.9-7,15.8-5.3c4.6,1.3,7.4,6,9.2,10.5
			c0.5,1.1,0.9,2.2,1.8,2.8c2.6,2,5.1-0.1,7.5-1.1c6.1-2.7,12.7-1.9,18.9,0.1c2.7,0.8,5.4,2,7.3,4.1c2.5,2.7,3.2,6.7,2.4,10.2
			c-0.8,3.6-3,6.7-5.7,9.1c-2,1.8-4.6,3.9-4.3,6.4s3,3.7,5.2,4.8c3.9,1.9,7.4,4.6,10.3,7.8c1.5,1.7,2.9,3.6,3.2,5.8
			c0.5,4.1-3,7.7-6.8,9.1c-5,1.9-10.6,1.4-15.6-1.1c-5-2.4-10.1-6.7-15.5-5c-4.2,1.3-6.6,5.9-10.5,7.9c-6.5,3.2-13-2.2-18.2-4.8
			c-5.2-2.5-11.8-6.1-17.7-6.1c-3.3,0-6.4,1.2-9.5,2.4c-8.2,3.1-16.6,6.5-21.7,13.9c-2.4,3.5-4.7,7.4-8.5,9.5
			c-3.1,1.7-6.9,1.9-10.5,2.7c-7.8,1.6-17.4,7-22.4,13.4c-3,3.8-5.1,8.5-7,12.7c-1.9,4.2-3.7,8.5-4.2,13c-0.7,6.8,1,15-3,19.9
			c-3.9,4.9-14.2,7.3-19.8,4.2C10.4,169.1,8.9,163.4,8.1,158.3z"/>
		<path class="st13" d="M141.7,50.9c1.1-1.6,2.6-3,4.3-4c2.6-1.6,6.1-3.1,9.2-2.7c2.5,0.3,4.3,1.9,5.2,4.1c1.7,3.9,2,8.4,0.9,12.5
			c-7.3-2.2-14.3-4.4-21.6-6.5C140.3,53.1,140.9,51.9,141.7,50.9z"/>
		<path class="st14" d="M137.9,62.7c0.1-2.9,0.7-5.8,1.9-8.4c7.3,2.1,14.3,4.3,21.6,6.5c-1.4,4.9-4.6,9.3-9.3,11.5
			c-2.9,1.4-6.4,1.7-9.2,0.2C139.5,70.6,137.8,66.5,137.9,62.7z"/>
		<path d="M148.8,57.8c1.4,0.3,2.2,1,3.6,1.3c-0.4-0.1-1.1,1.7-1.3,2c-0.6,1.2-1.1,2.4-1.9,3.4c-0.9,1.2-2.1,2-3.5,2.4
			c-1.8,0.4-3.7-0.4-4.8-1.7c-1.1-1.4-1.8-3.2-1.8-5c0-1.8,0.2-3.6,0.7-5.3C142.7,56.1,145.7,57.1,148.8,57.8z"/>
		<path class="st15" d="M81.3,69.4c-1.2-3.6-4.2-5-7.9-2.9c-3.7,2.1-6,6.5-8.2,10.6s-3.8,8.6-3.9,13.3c-0.1,1.6-0.1,3.4,1.5,4.5
			s3.4,0.4,4.8-0.5c6.9-4.5,15.7-13.8,14.2-23C81.7,70.7,81.5,70.1,81.3,69.4z"/>
		<path class="st16" d="M85.6,67.8c-0.6-2.2-2-4-4-5.1c-2.5-1.5-5.7-1.9-8.1,0"/>
		<path class="st16" d="M61.4,98.6c-1.5,0.2-3-1.1-3.6-2.5c-0.9-1.8-1.1-3.9-0.6-5.8"/>
		<path class="st16" d="M139.9,54.3c7.3,2.1,14,4.2,21.3,6.4"/>
		<path class="st13" d="M97.9,39.9c1.2-1.6,2.6-2.9,4.3-4c2.6-1.6,6.1-3.1,9.3-2.7c2.4,0.3,4.2,2,5.2,4.2c1.7,3.9,2,8.3,0.9,12.5
			c-7.3-2.2-14.3-4.4-21.6-6.5C96.5,42.1,97.2,41,97.9,39.9z"/>
		<path class="st14" d="M94.1,51.8c0.1-2.9,0.7-5.8,1.9-8.5c7.3,2.1,14.3,4.3,21.6,6.5c-1.4,4.9-4.6,9.3-9.3,11.6
			c-2.9,1.3-6.4,1.6-9.2,0.1C95.7,59.7,94,55.6,94.1,51.8z"/>
		<path d="M105,46.9c1.4,0.3,2.2,0.9,3.6,1.2c-0.4-0.1-1.1,1.7-1.3,2c-0.5,1.2-1.2,2.3-1.9,3.4c-0.9,1.2-2.2,2-3.6,2.4
			c-1.7,0.4-3.7-0.4-4.8-1.7c-1.1-1.4-1.7-3.2-1.8-5c0-1.8,0.2-3.6,0.7-5.3C98.9,45.2,102,46.2,105,46.9z"/>
		<path class="st16" d="M96.2,43.4c7.3,2,14,4.2,21.3,6.4"/>
	</g>
</g>
<g>
	<g>
		<path class="st17" d="M641.4,152.3c1.7,1.6,3.1,3.5,4.3,5.5c3.2,5.1,4.7,9.6,4.9,15.6c0.1,4.6-0.2,9.5-2.2,13.7
			c-1,2-2.4,3.6-3.7,5.3c-1.3,1.7-2.5,3.6-4.2,4.9c-3.9,2.9-8.6,4.7-12.6,7.6c-4,2.8-8,5.4-12.5,7.4c-4.6,1.9-9.5,2.9-14.3,3.8
			c-2.9,0.6-5.6,0.5-8.5,0.7c-2.3,0.2-4.6,0.6-6.8,0.8c-5.3,0.4-10.9,0.1-16.2,0.1c-2.7,0-5.5-0.2-8.2,0c-2.5,0.2-4.8,0.8-7.3,0.9
			c-5.3,0.3-10.6,0.5-15.9,0.8c-21.8,1.1-43.7,0.1-65.5-1.3c-5.4-0.3-10.8,0.3-16.3,0c-5.3-0.3-10.6-1.1-15.8-1.9
			c-5.3-0.8-10.6-1.8-15.8-2.7c-5-0.9-10.1-1.7-15.2-1.4c-2,0.1-2,3.1,0,3c6.4-0.3,12.7,1.2,18.9,2.5c5.3,1.1,10.6,2,15.9,2.9
			c-1.1,1.1-2,2-3.8,2.2c-2.2,0.3-4.3,0.7-6.5,1c-0.2,0-0.3-0.1-0.5-0.1c-4-0.5-8.1-0.4-12.1-0.2c-3.9,0.2-7.2,0-11-1
			c-7.1-1.9-13.9-2.8-21.1-1.1c-6.7,1.6-13.7,1.1-20.6,1.1c-6.7,0-13.5-0.5-20.1-2.3c-6.7-1.9-13.5-3.4-20.1-5.9
			c-3.2-1.2-6.5-2.4-9.5-4c-3.1-1.6-6-3.6-8.9-5.5c-2.5-1.6-4.9-3.5-6.6-5.9c-1.6-2.2-3.5-5.1-4.2-7.7c-0.5-1.8-0.3-3.7-0.3-5.6
			c0-1.6,0-3.2,0.1-4.8c0.2-3.1,1.4-6.1,2.9-8.8c2.9-5,7.3-9,12-12.5c2.3-1.7,4.7-3.4,7.5-4.2c3.3-1,5.7-1.1,9.2-1
			c0.7,0,2.4,0.1,3.1,0.2c1,2.7,2,4.4,3.8,6.6c2.1,2.5,4.9,4.2,6.5,7.1c1.4,2.5,5.4,0.8,4.6-1.9c-1-3.2-3.8-5.3-6.1-7.5
			c-2.5-2.3-4.1-5.5-5-8.7c-0.9-3.2-1.8-6.5-2.1-9.8c-0.3-3.4,0.3-6.6,1.5-9.8c1.1-3,2.5-5.9,3.8-8.9c1.2-2.8,2.2-5.6,3.7-8.2
			c1.4-2.5,2.5-4.5,5.1-6.1c2.5-1.5,6.5-2,9.3-1.9c10.1,0.4,18.8,4.6,19.2,4.8c0.1,0,0.1,0.1,0.2,0.1c-0.6,1.6-1,3.3-1.4,5
			c-0.6,2.8-0.3,5.9-2,8.3c-1.8,2.6,2.5,5,4.3,2.5c1.9-2.7,1.8-5.7,2.3-8.8c0.7-3.4,1.8-6.8,3.4-10c3.2-6.4,6.1-13.1,9.7-19.4
			c3-5.3,7.5-9.5,12.1-13.4c4.4-3.7,9.2-6.7,14.8-8.6c12-4.1,24.4-4.9,37-3.2c5.9,0.8,11.9,1.8,17.6,3.6c3.8,1.1,7.5,2.6,11.1,4.2
			c3.2,1.4,6.3,2.4,9.1,4.5c4.7,3.5,10.2,7,13.7,11.7c0.4,0.6,4.9,6,4.6,6.5c-3.4,2.2-6.6,4.7-9.5,7.3c-2.3,2.1-4.5,4.4-6.1,7
			c-1.6,2.5-2.8,5-4.9,7.1c-2.2,2.2,1.3,5.6,3.5,3.4c2.2-2.3,3.7-4.8,5.3-7.5c1.7-2.8,4-5.1,6.5-7.3c4.9-4.3,10.5-8.1,16.7-10.4
			c11.1-4.1,22.9-3.7,34.4-1.5c11.8,2.3,23.3,6.5,33.6,12.7c4.9,3,9.5,6.4,13.9,10.1c2.4,2,4.8,4.2,6.4,6.9c1.5,2.5,2.9,5.1,4.2,7.7
			c2.8,5.6,3.9,11.6,3.3,17.8c-0.3,3.4-0.7,7.1-2,10.2c-1,2.3-2.5,4.7-1.9,7.1c0.1,0.5,0.4,1.1,1,1.3c0.5,0.2,1.1-0.1,1.5-0.4
			c5.4-3.3,6.4-11.3,6.4-18c1.5,0.2,3,0.3,3.8,0.5C634.5,148,638.5,149.6,641.4,152.3z"/>
		<g>
			<path class="st18" d="M400.2,168.9c0.8-6.2,9.3-8.9,14.2-3.8c9,9.2-10.5,19.5-13.9,7.2C400.2,171,400.1,169.9,400.2,168.9z"/>
			<path class="st18" d="M501.7,163.1c0.8-6.2,9.3-8.9,14.2-3.8c9,9.2-10.5,19.5-13.9,7.2C501.6,165.2,501.5,164.1,501.7,163.1z"/>
			<path d="M390.3,149c1-7.5,11.3-10.8,17.2-4.7c10.9,11.2-12.7,23.6-16.9,8.7C390.3,151.6,390.2,150.3,390.3,149z"/>
			<path d="M518,137.8c6.7-3.8,15.6,2.3,14.2,10.7c-2.6,15.3-27,4.2-17.3-8C515.8,139.3,516.9,138.5,518,137.8z"/>
			<path d="M438.1,180.9c0.5,5.3,4,11.7,10.2,11c5.6-0.6,10.2-3.6,11-9.4c0.3-2.5,4.2-1.7,3.9,0.7c-1.1,8-8,12-15.6,12.6
				c-7.9,0.6-12.8-8.1-13.4-14.7C434,178.7,437.9,178.4,438.1,180.9z"/>
			<path class="st19" d="M520.9,142c0.4-1.1,1.3-1.5,2.4-1.4c1.6,0.2,2.8,1.4,4,2.5c0.7,0.7,0.8,2,0,2.7c-0.8,0.7-2,0.8-2.8,0
				c-0.4-0.4-0.8-0.8-1.2-1.1c0,0,0,0,0,0c-0.1-0.1-0.3-0.2-0.4-0.2c-0.2-0.1-0.2-0.1,0,0c-0.2,0-0.4-0.1-0.5-0.1
				C521.3,144.2,520.6,142.9,520.9,142z"/>
			<path class="st19" d="M400.4,145c1.4-0.2,2.5,0.2,3.6,1.1c0.7,0.6,1.5,1.6,1.6,2.6c0.2,1-0.3,2.1-1.4,2.4
				c-0.9,0.2-2.3-0.3-2.4-1.4c0,0,0-0.1,0-0.2c0,0,0-0.1,0-0.1c-0.1-0.1-0.1-0.3-0.2-0.3c0.2,0.2,0.2,0.2,0,0.1
				c0-0.1-0.1-0.1-0.1-0.2c0,0-0.1-0.1-0.1-0.1c0,0-0.2-0.2-0.3-0.2c0,0,0,0,0,0c0,0-0.1,0-0.1,0c-0.8,0-1.7-0.5-1.9-1.4
				C398.8,146.4,399.3,145.1,400.4,145z"/>
		</g>
		<path d="M294.4,192.2c0.8,3.1,2.8,6.3,4.7,8.9c1.8,2.5,3.9,4.6,6.4,6.4c6.1,4.4,12.4,7.9,19.4,10.6c7.1,2.8,14.5,4.5,21.9,6.6
			c3.6,1,7.1,1.2,10.7,1.9c3.6,0.7,7.1,0.7,10.7,0.7c7.5,0,15,0.5,22.3-1.3c3.3-0.8,6.6-1,10.1-0.8c3.8,0.3,7.3,1.6,11,2.5
			c3.5,0.8,6.9,0.6,10.4,0.5c1.5-0.1,3,0,4.4,0c0.1,0,0.3,0,0.5,0c2.2,0,4.4,0,6.5-0.3c0.4-0.1,0.8-0.2,1.1-0.4
			c2.2-0.2,4.4-0.6,6.5-0.8c2.1-0.2,3.9-0.9,5.4-2.4c0.7-0.6,1.2-1.5,2-1.9c0.7-0.4,1.5-0.4,2.2-0.8c0.1-0.1,0.2-0.2,0.3-0.2
			c5.1,0.6,10.1,0.9,15.3,0.8c6.5-0.1,12.9,0.8,19.3,1.2c11.7,0.7,23.4,0.9,35.1,0.9c5.8,0,11.6,0.1,17.4-0.1
			c5.7-0.2,11.4-0.3,17.1-0.8c2.9-0.3,5.7-0.9,8.6-0.9c2.7,0,5.5,0.1,8.2,0.1c5.6,0,11.3,0.3,16.8-0.4c2.9-0.4,5.7-0.3,8.5-0.6
			c2.7-0.2,5.3-0.8,7.9-1.3c5.1-1.1,10-2.4,14.7-4.6c4.7-2.2,8.5-5.4,12.9-8.1c2.3-1.4,4.7-2.7,7-4.1c2.1-1.3,4.1-2.3,5.8-4.1
			c1.7-1.9,3.1-4,4.7-6c1.3-1.7,2.3-3.4,3.1-5.4c3.9-9.5,3.2-21.2-1.2-30.4c-2.7-5.6-6.5-10.9-11.9-14c-4-2.3-8.9-3.3-13.5-2.8
			c-0.4-7.2-3.4-13.2-6.7-19.5c-3.1-5.9-7.6-9.9-12.7-14c-4.8-3.8-9.8-7.2-15.2-10.1c-11-5.9-23.2-9.8-35.7-11.6
			c-12.5-1.7-24.9-1.1-36.4,4.4c-0.9,0.4-1.7,0.9-2.6,1.3c-0.1,0-0.1-0.1-0.2-0.1c-0.7-0.3-1.4-2.9-1.8-3.6
			c-0.8-1.3-1.7-2.5-2.8-3.6c-2-2.2-4.3-4.2-6.4-6.2c-4.1-3.8-8.6-7.2-13.7-9.7c-4-2-8.8-4.1-13.3-5.5c-3.1-1-6.5-1.7-9.7-2.4
			c-6-1.3-12.1-2.1-18.2-2.6c-12.2-1-25.1,0.9-36.3,5.8c-5.8,2.5-10.7,6.5-15.3,10.7c-4.6,4.2-8.3,8.8-11.2,14.3
			c-3.1,5.7-6,11.7-8.7,17.6c-0.2,0.4-0.4,0.9-0.6,1.3c-0.5-0.4-10-6.4-22.1-6.4c-3.3,0-6.8-0.1-9.7,1.7c-2.8,1.7-5.1,4.5-6.7,7.3
			c-1.8,2.9-3,6.1-4.4,9.3c-1.5,3.4-3.2,6.7-4.4,10.1c-2.6,7.3-1.6,14.7,0.5,22c-0.2-0.1-3-0.8-3.2-0.8c-4-0.3-5.6-0.2-9.5,1
			c-3.5,1-6.5,3.1-9.3,5.2c-5.7,4.1-11,9.1-13.9,15.5c-1.4,3-2.2,6.2-2.4,9.5C293.9,185,293.4,188.9,294.4,192.2z M299,185.3
			c0-1.6,0-3.2,0.1-4.8c0.2-3.1,1.4-6.1,2.9-8.8c2.9-5,7.3-9,12-12.5c2.3-1.7,4.7-3.4,7.5-4.2c3.3-1,5.7-1.1,9.2-1
			c0.7,0,2.4,0.1,3.1,0.2c1,2.7,2,4.4,3.8,6.6c2.1,2.5,4.9,4.2,6.5,7.1c1.4,2.5,5.4,0.8,4.6-1.9c-1-3.2-3.8-5.3-6.1-7.5
			c-2.5-2.3-4.1-5.5-5-8.7c-0.9-3.2-1.8-6.5-2.1-9.8c-0.3-3.4,0.3-6.6,1.5-9.8c1.1-3,2.5-5.9,3.8-8.9c1.2-2.8,2.2-5.6,3.7-8.2
			c1.4-2.5,2.5-4.5,5.1-6.1c2.5-1.5,6.5-2,9.3-1.9c10.1,0.4,18.8,4.6,19.2,4.8c0.1,0,0.1,0.1,0.2,0.1c-0.6,1.6-1,3.3-1.4,5
			c-0.6,2.8-0.3,5.9-2,8.3c-1.8,2.6,2.5,5,4.3,2.5c1.9-2.7,1.8-5.7,2.3-8.8c0.7-3.4,1.8-6.8,3.4-10c3.2-6.4,6.1-13.1,9.7-19.4
			c3-5.3,7.5-9.5,12.1-13.4c4.4-3.7,9.2-6.7,14.8-8.6c12-4.1,24.4-4.9,37-3.2c5.9,0.8,11.9,1.8,17.6,3.6c3.8,1.1,7.5,2.6,11.1,4.2
			c3.2,1.4,6.3,2.4,9.1,4.5c4.7,3.5,10.2,7,13.7,11.7c0.4,0.6,4.9,6,4.6,6.5c-3.4,2.2-6.6,4.7-9.5,7.3c-2.3,2.1-4.5,4.4-6.1,7
			c-1.6,2.5-2.8,5-4.9,7.1c-2.2,2.2,1.3,5.6,3.5,3.4c2.2-2.3,3.7-4.8,5.3-7.5c1.7-2.8,4-5.1,6.5-7.3c4.9-4.3,10.5-8.1,16.7-10.4
			c11.1-4.1,22.9-3.7,34.4-1.5c11.8,2.3,23.3,6.5,33.6,12.7c4.9,3,9.5,6.4,13.9,10.1c2.4,2,4.8,4.2,6.4,6.9c1.5,2.5,2.9,5.1,4.2,7.7
			c2.8,5.6,3.9,11.6,3.3,17.8c-0.3,3.4-0.7,7.1-2,10.2c-1,2.3-2.5,4.7-1.9,7.1c0.1,0.5,0.4,1.1,1,1.3c0.5,0.2,1.1-0.1,1.5-0.4
			c5.4-3.3,6.4-11.3,6.4-18c1.5,0.2,3,0.3,3.8,0.5c3.9,1.1,7.8,2.7,10.8,5.4c1.7,1.6,3.1,3.5,4.3,5.5c3.2,5.1,4.7,9.6,4.9,15.6
			c0.1,4.6-0.2,9.5-2.2,13.7c-1,2-2.4,3.6-3.7,5.3c-1.3,1.7-2.5,3.6-4.2,4.9c-3.9,2.9-8.6,4.7-12.6,7.6c-4,2.8-8,5.4-12.5,7.4
			c-4.6,1.9-9.5,2.9-14.3,3.8c-2.9,0.6-5.6,0.5-8.5,0.7c-2.3,0.2-4.6,0.6-6.8,0.8c-5.3,0.4-10.9,0.1-16.2,0.1c-2.7,0-5.5-0.2-8.2,0
			c-2.5,0.2-4.8,0.8-7.3,0.9c-5.3,0.3-10.6,0.5-15.9,0.8c-21.8,1.1-43.7,0.1-65.5-1.3c-5.4-0.3-10.8,0.3-16.3,0
			c-5.3-0.3-10.6-1.1-15.8-1.9c-5.3-0.8-10.6-1.8-15.8-2.7c-5-0.9-10.1-1.7-15.2-1.4c-2,0.1-2,3.1,0,3c6.4-0.3,12.7,1.2,18.9,2.5
			c5.3,1.1,10.6,2,15.9,2.9c-1.1,1.1-2,2-3.8,2.2c-2.2,0.3-4.3,0.7-6.5,1c-0.2,0-0.3-0.1-0.5-0.1c-4-0.5-8.1-0.4-12.1-0.2
			c-3.9,0.2-7.2,0-11-1c-7.1-1.9-13.9-2.8-21.1-1.1c-6.7,1.6-13.7,1.1-20.6,1.1c-6.7,0-13.5-0.5-20.1-2.3
			c-6.7-1.9-13.5-3.4-20.1-5.9c-3.2-1.2-6.5-2.4-9.5-4c-3.1-1.6-6-3.6-8.9-5.5c-2.5-1.6-4.9-3.5-6.6-5.9c-1.6-2.2-3.5-5.1-4.2-7.7
			C298.8,189.1,298.9,187.2,299,185.3z"/>
	</g>
	<g>
		<path class="st20" d="M282.3,125.7c0.5-0.8,0.8-1.7,1-2.7c0.2,0.3,0.3,0.6,0.5,1c0.6,1.2,0.8,2.5,1.6,3.6c0.7,1,1.6,1.9,2.5,2.6
			c1.2,1,2.5,1.6,3.9,2.1c-0.8,0.1-1.7,0.3-2.5,0.6c-1.9,0.7-3.4,2.1-4.8,3.7c-1.2,1.4-2.2,2.9-3.1,4.4c0-0.2,0-0.4,0-0.6
			c-0.1-2.3-0.7-4.3-2-6.2c-1.1-1.5-2.4-2.8-4-3.7C278.2,129.7,280.7,128.3,282.3,125.7z"/>
		<path d="M266.5,131.1c1.1,0,2,0.4,3.1,0.6c1,0.2,2,0.3,3,0.8c1.9,0.9,3.6,2.4,4.7,4.2c1,1.7,1,3.5,1.1,5.4
			c0.1,2.3,0.5,4.5,0.4,6.7c-0.1,1.8,2.6,2.3,3,0.5c0.8-3.6,2-7.1,4.4-9.9c2.4-2.9,5.8-4.3,9.4-4.7c1.3-0.1,4.7,0.3,4.1-2.2
			c-0.4-1.4-2.7-1.5-3.9-1.8c-3.6-0.6-6.4-2.4-8.3-5.6c-2.2-3.7-1.8-8-2.7-12.2c-0.1-0.3-0.1-0.6-0.4-0.9c-0.5-0.5-1.3-0.4-1.8,0.1
			c-0.5,0.5-0.7,1.2-0.8,1.9c-1.2,5.8-0.8,10.7-6.9,13.1c-2.7,1-5.5,0.8-8.3,0.7C264.6,127.8,264.6,131,266.5,131.1z M275.4,130.4
			c2.8-0.7,5.3-2.1,6.9-4.7c0.5-0.8,0.8-1.7,1-2.7c0.2,0.3,0.3,0.6,0.5,1c0.6,1.2,0.8,2.5,1.6,3.6c0.7,1,1.6,1.9,2.5,2.6
			c1.2,1,2.5,1.6,3.9,2.1c-0.8,0.1-1.7,0.3-2.5,0.6c-1.9,0.7-3.4,2.1-4.8,3.7c-1.2,1.4-2.2,2.9-3.1,4.4c0-0.2,0-0.4,0-0.6
			c-0.1-2.3-0.7-4.3-2-6.2C278.3,132.6,276.9,131.4,275.4,130.4z"/>
	</g>
	<g>
		<path class="st20" d="M662.7,96.6c0.5-0.8,0.8-1.7,1-2.7c0.2,0.3,0.3,0.6,0.5,1c0.6,1.2,0.8,2.5,1.6,3.6c0.7,1,1.6,1.9,2.5,2.6
			c1.2,1,2.5,1.6,3.9,2.1c-0.8,0.1-1.7,0.3-2.5,0.6c-1.9,0.7-3.4,2.1-4.8,3.7c-1.2,1.4-2.2,2.9-3.1,4.4c0-0.2,0-0.4,0-0.6
			c-0.1-2.3-0.7-4.3-2-6.2c-1.1-1.5-2.4-2.8-4-3.7C658.6,100.6,661.1,99.2,662.7,96.6z"/>
		<path d="M646.9,102c1.1,0,2,0.4,3.1,0.6c1,0.2,2,0.3,3,0.8c1.9,0.9,3.6,2.4,4.7,4.2c1,1.7,1,3.5,1.1,5.4c0.1,2.3,0.5,4.5,0.4,6.7
			c-0.1,1.8,2.6,2.3,3,0.5c0.8-3.6,2-7.1,4.4-9.9c2.4-2.9,5.8-4.3,9.4-4.7c1.3-0.1,4.7,0.3,4.1-2.2c-0.4-1.4-2.7-1.5-3.9-1.8
			c-3.6-0.6-6.4-2.4-8.3-5.6c-2.2-3.7-1.8-8-2.7-12.2c-0.1-0.3-0.1-0.6-0.4-0.9c-0.5-0.5-1.3-0.4-1.8,0.1c-0.5,0.5-0.7,1.2-0.8,1.9
			c-1.2,5.8-0.8,10.7-6.9,13.1c-2.7,1-5.5,0.8-8.3,0.7C645,98.8,644.9,101.9,646.9,102z M655.8,101.3c2.8-0.7,5.3-2.1,6.9-4.7
			c0.5-0.8,0.8-1.7,1-2.7c0.2,0.3,0.3,0.6,0.5,1c0.6,1.2,0.8,2.5,1.6,3.6c0.7,1,1.6,1.9,2.5,2.6c1.2,1,2.5,1.6,3.9,2.1
			c-0.8,0.1-1.7,0.3-2.5,0.6c-1.9,0.7-3.4,2.1-4.8,3.7c-1.2,1.4-2.2,2.9-3.1,4.4c0-0.2,0-0.4,0-0.6c-0.1-2.3-0.7-4.3-2-6.2
			C658.7,103.6,657.3,102.3,655.8,101.3z"/>
	</g>
	<g>
		<path class="st20" d="M507.5,47.5c0.2,0.7,0.6,1.6,1.5,2.4c0.5,0.4,1.2,0.9,2.3,1.3c-0.6,0-1.6,0.4-2.1,0.7
			c-1.2,0.9-2.4,2.4-2.7,3.9c-0.1-1.5-0.9-2.9-1.9-3.8c-0.3-0.3-1-0.6-1.7-0.8c1.2-0.5,2.6-1.1,3.6-2.1
			C506.7,48.9,507.3,48,507.5,47.5z"/>
		<path d="M496.8,50.2c0,0.1-0.1,0.3,0,0.4c0,0.4,0.4,0.7,0.8,0.9c1.9,0.9,4.2,1.3,5.7,3c1.3,1.5,0.9,4,1.2,5.7
			c0.2,1.1,1.3,1.4,2.2,1c1.3-0.5,1.2-1.9,1.5-3.1c0.4-1.6,1.9-3.5,3.5-4.1c1.6-0.7,3.5-0.5,5.2-1c1.5-0.4,1.5-2.2,0.6-2.9
			c-0.3-0.3-0.7-0.6-1.2-0.6c-1.8-0.1-3.8-0.5-5.1-1.8c-1.4-1.5-1.6-3.3-1.8-5.2c-0.1-1.2,0-3.1-1.6-3.3c-1-0.2-1.9,0.5-2,1.5
			c-0.1,2,0.3,4.6-1.2,6.2c-1.2,1.3-3.4,2-5.1,2.1c-0.6,0-1.2,0-1.8,0.2C497.3,49.5,496.9,49.8,496.8,50.2z M502.8,51.2
			c1.2-0.5,2.6-1.1,3.6-2.1c0.3-0.3,0.9-1.1,1.1-1.7c0.2,0.7,0.6,1.6,1.5,2.4c0.5,0.4,1.2,0.9,2.3,1.3c-0.6,0-1.6,0.4-2.1,0.7
			c-1.2,0.9-2.4,2.4-2.7,3.9c-0.1-1.5-0.9-2.9-1.9-3.8C504.2,51.8,503.6,51.4,502.8,51.2z"/>
	</g>
	<g>
		<path class="st20" d="M475.1,30.6c0.2,0.7,0.6,1.6,1.5,2.4c0.5,0.4,1.2,0.9,2.3,1.3c-0.6,0-1.6,0.4-2.1,0.7
			c-1.2,0.9-2.4,2.4-2.7,3.9c-0.1-1.5-0.9-2.9-1.9-3.8c-0.3-0.3-1-0.6-1.7-0.8c1.2-0.5,2.6-1.1,3.6-2.1
			C474.4,32.1,475,31.2,475.1,30.6z"/>
		<path d="M464.4,33.4c0,0.1-0.1,0.3,0,0.4c0,0.4,0.4,0.7,0.8,0.9c1.9,0.9,4.2,1.3,5.7,3c1.3,1.5,0.9,4,1.2,5.7
			c0.2,1.1,1.3,1.4,2.2,1c1.3-0.5,1.2-1.9,1.5-3.1c0.4-1.6,1.9-3.5,3.5-4.1c1.6-0.7,3.5-0.5,5.2-1c1.5-0.4,1.5-2.2,0.6-2.9
			c-0.3-0.3-0.7-0.6-1.2-0.6c-1.8-0.1-3.8-0.5-5.1-1.8c-1.4-1.5-1.6-3.3-1.8-5.2c-0.1-1.2,0-3.1-1.6-3.3c-1-0.2-1.9,0.5-2,1.5
			c-0.1,2,0.3,4.6-1.2,6.2c-1.2,1.3-3.4,2-5.1,2.1c-0.6,0-1.2,0-1.8,0.2C465,32.7,464.6,33,464.4,33.4z M470.4,34.4
			c1.2-0.5,2.6-1.1,3.6-2.1c0.3-0.3,0.9-1.1,1.1-1.7c0.2,0.7,0.6,1.6,1.5,2.4c0.5,0.4,1.2,0.9,2.3,1.3c-0.6,0-1.6,0.4-2.1,0.7
			c-1.2,0.9-2.4,2.4-2.7,3.9c-0.1-1.5-0.9-2.9-1.9-3.8C471.8,35,471.2,34.6,470.4,34.4z"/>
	</g>
	<g>
		<path class="st20" d="M621.5,86.8c0.2,0.7,0.6,1.6,1.5,2.4c0.5,0.4,1.2,0.9,2.3,1.3c-0.6,0-1.6,0.4-2.1,0.7
			c-1.2,0.9-2.4,2.4-2.7,3.9c-0.1-1.5-0.9-2.9-1.9-3.8c-0.3-0.3-1-0.6-1.7-0.8c1.2-0.5,2.6-1.1,3.6-2.1
			C620.7,88.2,621.3,87.3,621.5,86.8z"/>
		<path d="M610.8,89.6c0,0.1-0.1,0.3,0,0.4c0,0.4,0.4,0.7,0.8,0.9c1.9,0.9,4.2,1.3,5.7,3c1.3,1.5,0.9,4,1.2,5.7
			c0.2,1.1,1.3,1.4,2.2,1c1.3-0.5,1.2-1.9,1.5-3.1c0.4-1.6,1.9-3.5,3.5-4.1c1.6-0.7,3.5-0.5,5.2-1c1.5-0.4,1.5-2.2,0.6-2.9
			c-0.3-0.3-0.7-0.6-1.2-0.6c-1.8-0.1-3.8-0.5-5.1-1.8c-1.4-1.5-1.6-3.3-1.8-5.2c-0.1-1.2,0-3.1-1.6-3.3c-1-0.2-1.9,0.5-2,1.5
			c-0.1,2,0.3,4.6-1.2,6.2c-1.2,1.3-3.4,2-5.1,2.1c-0.6,0-1.2,0-1.8,0.2C611.3,88.8,610.9,89.2,610.8,89.6z M616.8,90.6
			c1.2-0.5,2.6-1.1,3.6-2.1c0.3-0.3,0.9-1.1,1.1-1.7c0.2,0.7,0.6,1.6,1.5,2.4c0.5,0.4,1.2,0.9,2.3,1.3c-0.6,0-1.6,0.4-2.1,0.7
			c-1.2,0.9-2.4,2.4-2.7,3.9c-0.1-1.5-0.9-2.9-1.9-3.8C618.2,91.1,617.6,90.8,616.8,90.6z"/>
	</g>
	<g>
		<path class="st20" d="M671.1,201.9c0.5-0.8,0.8-1.7,1-2.7c0.2,0.3,0.3,0.6,0.5,1c0.6,1.2,0.8,2.5,1.6,3.6c0.7,1,1.6,1.9,2.5,2.6
			c1.2,1,2.5,1.6,3.9,2.1c-0.8,0.1-1.7,0.3-2.5,0.6c-1.9,0.7-3.4,2.1-4.8,3.7c-1.2,1.4-2.2,2.9-3.1,4.4c0-0.2,0-0.4,0-0.6
			c-0.1-2.3-0.7-4.3-2-6.2c-1.1-1.5-2.4-2.8-4-3.7C667.1,205.9,669.6,204.5,671.1,201.9z"/>
		<path d="M655.4,207.2c1.1,0,2,0.4,3.1,0.6c1,0.2,2,0.3,3,0.8c1.9,0.9,3.6,2.4,4.7,4.2c1,1.7,1,3.5,1.1,5.4
			c0.1,2.3,0.5,4.5,0.4,6.7c-0.1,1.8,2.6,2.3,3,0.5c0.8-3.6,2-7.1,4.4-9.9c2.4-2.9,5.8-4.3,9.4-4.7c1.3-0.1,4.7,0.3,4.1-2.2
			c-0.4-1.4-2.7-1.5-3.9-1.8c-3.6-0.6-6.4-2.4-8.3-5.6c-2.2-3.7-1.8-8-2.7-12.2c-0.1-0.3-0.1-0.6-0.4-0.9c-0.5-0.5-1.3-0.4-1.8,0.1
			c-0.5,0.5-0.7,1.2-0.8,1.9c-1.2,5.8-0.8,10.7-6.9,13.1c-2.7,1-5.5,0.8-8.3,0.7C653.5,204,653.4,207.2,655.4,207.2z M664.3,206.6
			c2.8-0.7,5.3-2.1,6.9-4.7c0.5-0.8,0.8-1.7,1-2.7c0.2,0.3,0.3,0.6,0.5,1c0.6,1.2,0.8,2.5,1.6,3.6c0.7,1,1.6,1.9,2.5,2.6
			c1.2,1,2.5,1.6,3.9,2.1c-0.8,0.1-1.7,0.3-2.5,0.6c-1.9,0.7-3.4,2.1-4.8,3.7c-1.2,1.4-2.2,2.9-3.1,4.4c0-0.2,0-0.4,0-0.6
			c-0.1-2.3-0.7-4.3-2-6.2C667.2,208.8,665.8,207.5,664.3,206.6z"/>
	</g>
	<g>
		<path class="st20" d="M685.6,167.1c0.3-0.3,0.9-1.1,1.1-1.7c0.2,0.7,0.6,1.6,1.5,2.4c0.5,0.4,1.2,0.9,2.3,1.3
			c-0.6,0-1.6,0.4-2.1,0.7c-1.2,0.9-2.4,2.4-2.7,3.9c-0.1-1.5-0.9-2.9-1.9-3.8c-0.3-0.3-1-0.6-1.7-0.8
			C683.2,168.7,684.5,168.1,685.6,167.1z"/>
		<path d="M682.4,172.6c1.3,1.5,0.9,4,1.2,5.7c0.2,1.1,1.3,1.4,2.2,1c1.3-0.5,1.2-1.9,1.5-3.1c0.4-1.6,1.9-3.5,3.5-4.1
			c1.6-0.7,3.5-0.5,5.2-1c1.5-0.4,1.5-2.2,0.6-2.9c-0.3-0.3-0.7-0.6-1.2-0.6c-1.8-0.1-3.8-0.5-5.1-1.8c-1.4-1.5-1.6-3.3-1.8-5.2
			c-0.1-1.2,0-3.1-1.6-3.3c-1-0.2-1.9,0.5-2,1.5c-0.1,2,0.3,4.6-1.2,6.2c-1.2,1.3-3.4,2-5.1,2.1c-0.6,0-1.2,0-1.8,0.2
			c-0.4,0.1-0.8,0.5-0.9,0.9c0,0.1-0.1,0.3,0,0.4c0,0.4,0.4,0.7,0.8,0.9C678.6,170.5,680.8,170.9,682.4,172.6z M683.7,170
			c-0.3-0.3-1-0.6-1.7-0.8c1.2-0.5,2.6-1.1,3.6-2.1c0.3-0.3,0.9-1.1,1.1-1.7c0.2,0.7,0.6,1.6,1.5,2.4c0.5,0.4,1.2,0.9,2.3,1.3
			c-0.6,0-1.6,0.4-2.1,0.7c-1.2,0.9-2.4,2.4-2.7,3.9C685.5,172.2,684.7,170.9,683.7,170z"/>
	</g>
	<g>
		<path class="st20" d="M314.4,93.2c0.3-0.3,0.9-1.1,1.1-1.7c0.2,0.7,0.6,1.6,1.5,2.4c0.5,0.4,1.2,0.9,2.3,1.3
			c-0.6,0-1.6,0.4-2.1,0.7c-1.2,0.9-2.4,2.4-2.7,3.9c-0.1-1.5-0.9-2.9-1.9-3.8c-0.3-0.3-1-0.6-1.7-0.8
			C312,94.9,313.4,94.2,314.4,93.2z"/>
		<path d="M311.2,98.7c1.3,1.5,0.9,4,1.2,5.7c0.2,1.1,1.3,1.4,2.2,1c1.3-0.5,1.2-1.9,1.5-3.1c0.4-1.6,1.9-3.5,3.5-4.1
			c1.6-0.7,3.5-0.5,5.2-1c1.5-0.4,1.5-2.2,0.6-2.9c-0.3-0.3-0.7-0.6-1.2-0.6c-1.8-0.1-3.8-0.5-5.1-1.8c-1.4-1.5-1.6-3.3-1.8-5.2
			c-0.1-1.2,0-3.1-1.6-3.3c-1-0.2-1.9,0.5-2,1.5c-0.1,2,0.3,4.6-1.2,6.2c-1.2,1.3-3.4,2-5.1,2.1c-0.6,0-1.2,0-1.8,0.2
			c-0.4,0.1-0.8,0.5-0.9,0.9c0,0.1-0.1,0.3,0,0.4c0,0.4,0.4,0.7,0.8,0.9C307.4,96.6,309.7,97,311.2,98.7z M312.5,96.1
			c-0.3-0.3-1-0.6-1.7-0.8c1.2-0.5,2.6-1.1,3.6-2.1c0.3-0.3,0.9-1.1,1.1-1.7c0.2,0.7,0.6,1.6,1.5,2.4c0.5,0.4,1.2,0.9,2.3,1.3
			c-0.6,0-1.6,0.4-2.1,0.7c-1.2,0.9-2.4,2.4-2.7,3.9C314.4,98.3,313.5,97,312.5,96.1z"/>
	</g>
	<g>
		<path class="st20" d="M368.8,71.8c0.3-0.3,0.9-1.1,1.1-1.7c0.2,0.7,0.6,1.6,1.5,2.4c0.5,0.4,1.2,0.9,2.3,1.3
			c-0.6,0-1.6,0.4-2.1,0.7c-1.2,0.9-2.4,2.4-2.7,3.9c-0.1-1.5-0.9-2.9-1.9-3.8c-0.3-0.3-1-0.6-1.7-0.8
			C366.4,73.4,367.7,72.7,368.8,71.8z"/>
		<path d="M365.6,77.2c1.3,1.5,0.9,4,1.2,5.7c0.2,1.1,1.3,1.4,2.2,1c1.3-0.5,1.2-1.9,1.5-3.1c0.4-1.6,1.9-3.5,3.5-4.1
			c1.6-0.7,3.5-0.5,5.2-1c1.5-0.4,1.5-2.2,0.6-2.9c-0.3-0.3-0.7-0.6-1.2-0.6c-1.8-0.1-3.8-0.5-5.1-1.8c-1.4-1.5-1.6-3.3-1.8-5.2
			c-0.1-1.2,0-3.1-1.6-3.3c-1-0.2-1.9,0.5-2,1.5c-0.1,2,0.3,4.6-1.2,6.2c-1.2,1.3-3.4,2-5.1,2.1c-0.6,0-1.2,0-1.8,0.2
			c-0.4,0.1-0.8,0.5-0.9,0.9c0,0.1-0.1,0.3,0,0.4c0,0.4,0.4,0.7,0.8,0.9C361.8,75.2,364,75.6,365.6,77.2z M366.9,74.7
			c-0.3-0.3-1-0.6-1.7-0.8c1.2-0.5,2.6-1.1,3.6-2.1c0.3-0.3,0.9-1.1,1.1-1.7c0.2,0.7,0.6,1.6,1.5,2.4c0.5,0.4,1.2,0.9,2.3,1.3
			c-0.6,0-1.6,0.4-2.1,0.7c-1.2,0.9-2.4,2.4-2.7,3.9C368.7,76.9,367.9,75.6,366.9,74.7z"/>
	</g>
	<g>
		<path class="st20" d="M250.9,173.4c0.2,0.7,0.6,1.6,1.5,2.4c0.5,0.4,1.2,0.9,2.3,1.3c-0.6,0-1.6,0.4-2.1,0.7
			c-1.2,0.9-2.4,2.4-2.7,3.9c-0.1-1.5-0.9-2.9-1.9-3.8c-0.3-0.3-1-0.6-1.7-0.8c1.2-0.5,2.6-1.1,3.6-2.1
			C250.2,174.8,250.8,173.9,250.9,173.4z"/>
		<path d="M240.3,176.2c0,0.1-0.1,0.3,0,0.4c0,0.4,0.4,0.7,0.8,0.9c1.9,0.9,4.2,1.3,5.7,3c1.3,1.5,0.9,4,1.2,5.7
			c0.2,1.1,1.3,1.4,2.2,1c1.3-0.5,1.2-1.9,1.5-3.1c0.4-1.6,1.9-3.5,3.5-4.1c1.6-0.7,3.5-0.5,5.2-1c1.5-0.4,1.5-2.2,0.6-2.9
			c-0.3-0.3-0.7-0.6-1.2-0.6c-1.8-0.1-3.8-0.5-5.1-1.8c-1.4-1.5-1.6-3.3-1.8-5.2c-0.1-1.2,0-3.1-1.6-3.3c-1-0.2-1.9,0.5-2,1.5
			c-0.1,2,0.3,4.6-1.2,6.2c-1.2,1.3-3.4,2-5.1,2.1c-0.6,0-1.2,0-1.8,0.2C240.8,175.4,240.4,175.8,240.3,176.2z M246.3,177.2
			c1.2-0.5,2.6-1.1,3.6-2.1c0.3-0.3,0.9-1.1,1.1-1.7c0.2,0.7,0.6,1.6,1.5,2.4c0.5,0.4,1.2,0.9,2.3,1.3c-0.6,0-1.6,0.4-2.1,0.7
			c-1.2,0.9-2.4,2.4-2.7,3.9c-0.1-1.5-0.9-2.9-1.9-3.8C247.7,177.7,247,177.4,246.3,177.2z"/>
	</g>
	<g>
		<path class="st20" d="M277.4,210c0.2,0.7,0.6,1.6,1.5,2.4c0.5,0.4,1.2,0.9,2.3,1.3c-0.6,0-1.6,0.4-2.1,0.7
			c-1.2,0.9-2.4,2.4-2.7,3.9c-0.1-1.5-0.9-2.9-1.9-3.8c-0.3-0.3-1-0.6-1.7-0.8c1.2-0.5,2.6-1.1,3.6-2.1
			C276.7,211.4,277.3,210.5,277.4,210z"/>
		<path d="M266.8,212.8c0,0.1-0.1,0.3,0,0.4c0,0.4,0.4,0.7,0.8,0.9c1.9,0.9,4.2,1.3,5.7,3c1.3,1.5,0.9,4,1.2,5.7
			c0.2,1.1,1.3,1.4,2.2,1c1.3-0.5,1.2-1.9,1.5-3.1c0.4-1.6,1.9-3.5,3.5-4.1c1.6-0.7,3.5-0.5,5.2-1c1.5-0.4,1.5-2.2,0.6-2.9
			c-0.3-0.3-0.7-0.6-1.2-0.6c-1.8-0.1-3.8-0.5-5.1-1.8c-1.4-1.5-1.6-3.3-1.8-5.2c-0.1-1.2,0-3.1-1.6-3.3c-1-0.2-1.9,0.5-2,1.5
			c-0.1,2,0.3,4.6-1.2,6.2c-1.2,1.3-3.4,2-5.1,2.1c-0.6,0-1.2,0-1.8,0.2C267.3,212,266.9,212.4,266.8,212.8z M272.8,213.7
			c1.2-0.5,2.6-1.1,3.6-2.1c0.3-0.3,0.9-1.1,1.1-1.7c0.2,0.7,0.6,1.6,1.5,2.4c0.5,0.4,1.2,0.9,2.3,1.3c-0.6,0-1.6,0.4-2.1,0.7
			c-1.2,0.9-2.4,2.4-2.7,3.9c-0.1-1.5-0.9-2.9-1.9-3.8C274.2,214.3,273.5,213.9,272.8,213.7z"/>
	</g>
</g>
<g id="Layer_2_00000079452663569978673760000016752109796135139761_">
	<g id="Layer_1-2_00000154407295671785380670000003456096138217277841_">
		<path class="st3" d="M272.2-172.6c-2.2,8.4-3,17.5,1.9,23.5c11.7,14,28,16.6,44.9,19.7c13.7,2.5,31-3.4,27.6-20.9
			c-2.1-10.8-17.5-14.7-26.4-16.9c-3.5-0.8-7.3-1.9-9.1-5s-1.3-6.1-0.8-9.3c1.9-12.2,11.3-36.4-6.4-42.6
			c-14.8-5.1-22.8,28.2-26.8,37.7C275.2-181.9,273.5-177.3,272.2-172.6z"/>
		<path class="st3" d="M429.7-206.1c-3.1,15.7-13.1,50.7,8.1,56.9c12.8,3.8,27.3,0.6,37.6-7.7c4-3.2,7.5-7.2,8.5-12.1
			c2.6-11.3-6.2-16.7-15.8-13c-3.9,1.5-7.5,3.8-11.6,4.9c-2.4,0.8-5.4,0.9-7.1-1s-1.2-4.2-0.9-6.4c1.4-9.3,11-39.8-7.2-38.4
			C434.7-222.3,431.5-215.2,429.7-206.1z"/>
		<path class="st21" d="M494.2-249.5c-12.6,18.6-27.8,36.1-47.6,46.5c-12.1,6.4-25.5,9.9-38.9,12.3c-38.9,6.9-81,4.3-115-16
			c-64.9-38.6-83.7-119.3-88-189.6c-0.7-11.5-0.9-23-0.8-34.4c7.6,0.5,15.2,1.2,22.8,1.9c1.7,62.7,14.1,131.5,61.3,168.2
			c14.3,11.1,29.1,22.2,46.2,28.4c23.5,8.7,49.5,7.6,74.2,3.1c76.5-14.3,96.9-91.3,110.6-160.1l24,3.8
			C538.2-336.8,521.5-290.1,494.2-249.5z"/>
		<path class="st5" d="M460.6-399c-5.8,32.6-18.4,63-48.2,78.1c-17,8.6-37.6,11.5-55.3,4.5c-26-10.1-40.4-38.2-46.9-65.3
			c-3-12.7-4.8-25.7-5.4-38.8c12.1,1.1,24.4,1.8,36.8,2.6c-0.2,4-0.2,7.9-0.1,11.9c0.4,15.8,3,32,11.5,45.3
			c11.6,18.2,32.6,26,51.4,12.7c9.6-6.8,16.2-17.2,21.5-27.8c4.6-9.3,8.5-18.9,11.6-28.8C445.2-402.7,452.9-400.7,460.6-399z"/>
		<path class="st22" d="M489.2-394c-3.3,19.9-6.8,39.8-14,58.6c-18,47.4-64.5,74.6-114.9,64.3c-73-14.8-91.2-86.6-92.6-153.5
			l28.4,3.2l8.7,0.9c0.6,13.1,2.4,26.1,5.4,38.8c6.5,27.1,20.9,55.2,46.9,65.3c17.7,7,38.3,4.1,55.3-4.5
			c29.8-15.1,42.4-45.5,48.2-78.1c5.5,1.2,11.1,2.3,16.7,3.2L489.2-394z"/>
		<path class="st23" d="M519-389.2c-13.7,68.8-34.1,145.8-110.6,160.1c-24.7,4.5-50.7,5.6-74.2-3.1c-17.1-6.2-31.9-17.3-46.2-28.4
			c-47.2-36.7-59.6-105.5-61.3-168.2c13.7,1.2,27.4,2.7,41,4.2c1.4,66.9,19.6,138.7,92.6,153.5c50.4,10.3,96.9-16.9,114.9-64.3
			c7.2-18.8,10.7-38.7,14-58.6L519-389.2z"/>
		<path class="st24" d="M515.8-486.1c-1.5,7.6-3.3,15.3-7.6,21.7c-7.1,10.5-21.1,15.4-31.7,6.2c-6.7-5.9-9.2-15.8-7.3-24.5"/>
		<path class="st24" d="M252.7-507.5c4.6,6.3,9.6,12.6,16.2,16.7c6.6,4.1,15.5,5.4,22.3,1.5c2.8-1.8,5.2-4,7.1-6.7
			c4.4-5.7,7.7-12.2,9.7-19.1"/>
		<path class="st24" d="M479.5-456c-5.7,8.4-10.9,17.1-15.9,25.9"/>
		<path class="st24" d="M513.3-437.9c-5-5.9-9.9-11.9-14.8-17.8"/>
		<path class="st24" d="M439.7-464.3c4.2-1.7,8.3-3.2,12.3-4.9c5.8-2,11.3-4.5,16.6-7.6"/>
		<path class="st24" d="M321.8-498.8c-4.9-4.1-10.1-7.9-15.5-11.4"/>
		<path class="st24" d="M290.3-488.9c3,5.8,6.5,11.4,10,16.9c2.2,3.3,4.3,6.7,6.5,10.1"/>
		<path class="st24" d="M267.2-492c-3.7,11.7-7.8,23.2-12.4,34.5"/>
	</g>
</g>
<g>
	<path class="st25" d="M-27.9,353.5c-0.1-0.3-0.2-0.6-0.4-0.9c-0.2-0.3-0.5-0.5-0.7-0.6c-0.2-0.1-0.5-0.2-0.7-0.3l-35.3-10.9
		l29.8-20.4l0.2-0.2c0.5-0.4,0.7-1,0.8-1.6c0.1-0.6-0.1-1.2-0.4-1.7c-0.3-0.5-0.8-0.9-1.4-1c-0.6-0.2-1.2-0.1-1.7,0.1l-34.6,23.6
		c-0.3,0.2-0.6,0.5-0.9,0.9c-0.3,0.4-0.4,0.9-0.4,1.4l-0.7,0.5l0.8,0.3c0.1,0.2,0.2,0.4,0.3,0.6c0.3,0.4,0.6,0.7,1.1,0.9l9,2.8
		c27.5,8.4,31.6,9.7,32.5,9.8l0,0c0.1,0,0.3,0,0.4,0c0.2,0,0.4,0,0.6-0.1c0.3-0.1,0.6-0.2,0.9-0.4c0.3-0.2,0.5-0.5,0.7-0.7
		c0.2-0.3,0.3-0.6,0.3-0.9C-27.7,354.2-27.8,353.8-27.9,353.5z"/>
	<path class="st25" d="M40.4,323c-0.4-1.1-1.5-1.6-2.1-1.8l0,0c-2.3-0.9-10-3.1-40.3-10.9c-0.3-0.1-0.6-0.1-0.8-0.1
		c-0.4,0-0.8,0.1-1.1,0.2c-0.3,0.2-0.7,0.4-0.9,0.6c-0.3,0.3-0.5,0.6-0.6,1c-0.1,0.4-0.1,0.8-0.1,1.1c0.1,0.4,0.2,0.7,0.4,1.1
		c0.2,0.3,0.5,0.6,0.8,0.7c0.3,0.1,0.5,0.2,0.8,0.3L32,325L2.1,346.6c-0.5,0.4-0.9,1.1-1,1.8c-0.1,0.7,0.1,1.4,0.6,1.9
		c0.4,0.5,1.1,0.9,1.8,0.9c0.1,0,0.2,0,0.3,0c0.6,0,1.1-0.2,1.5-0.5l7.4-5.3c19-13.7,24.7-17.8,26.5-19.2c0.4-0.3,1.3-1.1,1.4-2.2
		l0.9-0.7L40.4,323z"/>
	<path class="st25" d="M-7.3,296.4c-0.4-0.6-0.9-1-1.7-1.2c-0.7-0.1-1.4,0-1.9,0.4c-0.6,0.4-0.9,1-1.1,1.6l-14.4,71.6
		c-0.1,0.6,0.1,1.3,0.5,1.8c0.4,0.5,0.9,0.9,1.5,1c0.2,0,0.4,0.1,0.6,0.1c0.5,0,0.9-0.1,1.3-0.4c0.6-0.3,1-0.9,1.2-1.5l14.4-71.6
		C-6.8,297.6-6.9,296.9-7.3,296.4z"/>
</g>
</svg>
