<?xml version="1.0" encoding="utf-8"?>
<!-- Generator: Adobe Illustrator 27.7.0, SVG Export Plug-In . SVG Version: 6.00 Build 0)  -->
<svg version="1.1" id="Layer_1" xmlns="http://www.w3.org/2000/svg" xmlns:xlink="http://www.w3.org/1999/xlink" x="0px" y="0px"
	 viewBox="0 0 83 108" style="enable-background:new 0 0 83 108;" xml:space="preserve">
<style type="text/css">
	.st0{fill:#E95B1A;stroke:#000000;stroke-width:2.9317;stroke-miterlimit:10;}
</style>
<g>
	<path class="st0" d="M32.6,92.2l-8.3-13.5l14.1-7.8c0.5-0.2,0.9-0.7,1.2-1.2c0.3-0.6,0.3-1.2,0.1-1.8l-8.3-14.4l14.3-7.8
		c0.3-0.2,0.6-0.4,0.8-0.7c0.2-0.3,0.4-0.6,0.5-0.9c0.1-0.3,0.1-0.7,0-1c-0.1-0.3-0.2-0.6-0.3-0.9l-9.6-16.1
		c-0.1-0.2-0.2-0.4-0.4-0.6c-0.2-0.3-0.5-0.5-0.9-0.6c-0.3-0.1-0.7-0.2-1-0.2c-0.4,0-0.7,0.1-1.1,0.2l-0.3,0.1
		c-0.6,0.3-1,0.9-1.1,1.5c-0.2,0.6-0.1,1.3,0.3,1.8L41,42.4l-14.4,7.8c-0.3,0.2-0.6,0.4-0.8,0.7c-0.2,0.3-0.4,0.6-0.5,0.9
		c-0.1,0.3-0.1,0.7,0,1c0.1,0.3,0.2,0.6,0.3,0.9l8.2,14.1l-14.2,8c-0.2,0.1-0.4,0.2-0.6,0.4c-0.3,0.2-0.5,0.5-0.6,0.8
		c-0.1,0.3-0.2,0.6-0.2,0.9c0,0.3,0,0.7,0.2,1l8.4,13.7l-14.4,7.8l-0.1,0.1c-0.6,0.4-1,1-1.1,1.6c-0.1,0.7,0,1.4,0.4,1.9
		c0.4,0.6,1,0.9,1.7,1.1c0.2,0,0.3,0,0.5,0c0.5,0,1-0.1,1.4-0.4l16.6-9.1c0.3-0.2,0.6-0.4,0.8-0.6c0.2-0.3,0.4-0.6,0.5-0.9
		c0.1-0.3,0.1-0.7,0.1-1C32.9,92.7,32.8,92.4,32.6,92.2z"/>
	<path class="st0" d="M71.4,21L61.5,4.2c-0.7-1.2-2.3-1.6-3.5-0.9c-1.2,0.7-1.7,2.1-1,3.4l8.5,14.2l-14.2,7.9
		c-0.5,0.2-1,0.7-1.2,1.2c-0.3,0.6-0.3,1.2-0.1,1.8l8.3,14.4l-14.4,7.9c-0.3,0.2-0.6,0.4-0.8,0.6c-0.2,0.3-0.4,0.6-0.5,0.9
		c-0.1,0.3-0.1,0.7,0,1c0.1,0.3,0.2,0.6,0.3,0.9L51.2,71l-14.4,7.8l0,0c-0.6,0.3-1,0.9-1.2,1.5c-0.2,0.6-0.1,1.3,0.3,1.9
		c0.4,0.6,0.9,1,1.6,1.1c0.2,0.1,0.4,0.1,0.7,0.1c0.5,0,0.9-0.1,1.3-0.3c8.7-4.7,12.7-6.9,14.8-8c2.1-1.2,2.7-1.5,3-2.3
		c0.6-0.9,0.4-1.3-2.8-6.4c-1.2-2-3.1-5-5.7-9.2l14.4-7.9c0.3-0.2,0.6-0.4,0.8-0.6c0.2-0.3,0.4-0.6,0.5-0.9c0.1-0.3,0.1-0.7,0-1
		c-0.1-0.3-0.2-0.6-0.3-0.9l-8.2-14.1l14.2-7.9c0.5-0.2,1-0.7,1.2-1.2C71.6,22.2,71.6,21.6,71.4,21z"/>
</g>
</svg>
