<?xml version="1.0" encoding="utf-8"?>
<!-- Generator: Adobe Illustrator 27.7.0, SVG Export Plug-In . SVG Version: 6.00 Build 0)  -->
<svg version="1.1" id="Layer_1" xmlns="http://www.w3.org/2000/svg" xmlns:xlink="http://www.w3.org/1999/xlink" x="0px" y="0px"
	 viewBox="0 0 68 69" style="enable-background:new 0 0 68 69;" xml:space="preserve">
<style type="text/css">
	.st0{fill:#FFE029;}
</style>
<g>
	<path class="st0" d="M36.3,20.4c-1.3-2-2.1-4.1-2.6-6.3c-0.4,0.7-0.8,1.5-1.3,2.3c-1.5,2.9-2.1,5.8-4.1,8.5c-1.8,2.3-4,4.3-6.4,6.1
		c-3.1,2.2-6.5,3.8-10,4.9c2.2,0.2,4.3,0.6,6.4,1.3c4.8,1.7,8.8,5,12.2,8.6c3.1,3.2,5.7,6.7,7.8,10.3c0-0.5,0.1-1,0.1-1.5
		c0.3-5.4,1.8-10.2,5.2-14.6c2.7-3.5,6.2-6.5,10.2-8.8C46.7,29.7,40.3,26.5,36.3,20.4z"/>
	<path d="M62,28.2c-5.1,0.1-10.1,0.6-15-1.1C35.9,23.2,36.5,14.8,34.4,5c-0.3-1.2-0.6-2.4-1.5-3.2c-0.9-0.8-2.5-1-3.3-0.1
		c-0.4,0.4-0.5,0.9-0.6,1.5c-1.6,7-0.9,14.2-4.8,20.6c-3.4,5.4-8.6,8.4-15,9.5c-2,0.3-6.3,0.6-7,3c-1.2,4.2,5,3.4,7.3,3.7
		c6.5,0.7,12.6,3.1,17,8c4.3,4.8,6.6,10.7,8,16.8c0.7,3,5.7,2.2,5.5-0.9c-0.2-3.8,0.6-7.6,0.8-11.4c0.1-3.3,0.1-6.3,1.9-9.2
		c1.9-3.1,5.1-5.6,8.5-7.1c1.7-0.8,3.5-1,5.4-1.4c1.9-0.3,3.6-1,5.5-1C65.7,33.6,65.6,28.3,62,28.2z M40.8,39.6
		c-3.3,4.4-4.9,9.2-5.2,14.6c0,0.5-0.1,1-0.1,1.5c-2.1-3.7-4.7-7.2-7.8-10.3c-3.5-3.6-7.4-6.9-12.2-8.6c-2.1-0.7-4.2-1.1-6.4-1.3
		c3.6-1.1,6.9-2.7,10-4.9c2.4-1.7,4.6-3.7,6.4-6.1c2-2.7,2.5-5.6,4.1-8.5c0.4-0.8,0.8-1.5,1.3-2.3c0.5,2.2,1.3,4.3,2.6,6.3
		c4,6.1,10.4,9.3,17.5,10.9C47.1,33.1,43.5,36,40.8,39.6z"/>
</g>
</svg>
