<?xml version="1.0" encoding="utf-8"?>
<!-- Generator: Adobe Illustrator 27.7.0, SVG Export Plug-In . SVG Version: 6.00 Build 0)  -->
<svg version="1.1" id="Layer_1" xmlns="http://www.w3.org/2000/svg" xmlns:xlink="http://www.w3.org/1999/xlink" x="0px" y="0px"
	 viewBox="0 0 79 53" style="enable-background:new 0 0 79 53;" xml:space="preserve">
<style type="text/css">
	.st0{fill:#F5BFDA;stroke:#020202;stroke-miterlimit:10;}
</style>
<g>
	<path class="st0" d="M31.8,40.3c-0.1-0.2-0.2-0.4-0.3-0.6c-0.1-0.2-0.3-0.3-0.5-0.4c-0.2-0.1-0.3-0.2-0.5-0.2L7.1,31.9l19.7-13.6
		l0.2-0.1c0.3-0.3,0.5-0.7,0.5-1.1c0-0.4-0.1-0.8-0.3-1.2c-0.2-0.3-0.6-0.6-1-0.7c-0.4-0.1-0.8-0.1-1.2,0.1L2.2,31
		c-0.2,0.1-0.4,0.3-0.6,0.6c-0.2,0.3-0.3,0.6-0.3,0.9l-0.5,0.3L1.5,33c0,0.1,0.1,0.3,0.2,0.4c0.2,0.3,0.4,0.5,0.7,0.6l6,1.8
		c18.2,5.6,20.9,6.4,21.6,6.5l0,0c0.1,0,0.2,0,0.3,0c0.1,0,0.3,0,0.4-0.1c0.2-0.1,0.4-0.2,0.6-0.3c0.2-0.1,0.3-0.3,0.5-0.5
		c0.1-0.2,0.2-0.4,0.2-0.6C31.9,40.7,31.9,40.5,31.8,40.3z"/>
	<path class="st0" d="M77,20.1c-0.3-0.8-1-1-1.4-1.2l0,0c-1.5-0.6-6.7-2-26.7-7.2c-0.2-0.1-0.4-0.1-0.5-0.1c-0.2,0-0.5,0-0.7,0.1
		c-0.2,0.1-0.4,0.3-0.6,0.4c-0.2,0.2-0.3,0.4-0.4,0.7c-0.1,0.2-0.1,0.5,0,0.8c0,0.3,0.1,0.5,0.3,0.7c0.1,0.2,0.3,0.4,0.5,0.5
		c0.2,0.1,0.4,0.2,0.5,0.2l23.4,6.4L51.6,35.7C51.3,36,51,36.4,51,36.9c-0.1,0.5,0.1,0.9,0.4,1.3c0.3,0.3,0.7,0.6,1.2,0.6
		c0.1,0,0.1,0,0.2,0c0.4,0,0.8-0.1,1-0.3l4.9-3.5c12.6-9.1,16.4-11.8,17.5-12.7c0.3-0.2,0.9-0.7,0.9-1.5l0.6-0.4L77,20.1z"/>
	<path class="st0" d="M45.4,2.4c-0.2-0.4-0.6-0.6-1.1-0.8c-0.4-0.1-0.9,0-1.3,0.3c-0.4,0.3-0.6,0.6-0.7,1.1l-9.5,47.4
		c-0.1,0.4,0,0.8,0.3,1.2c0.2,0.4,0.6,0.6,1,0.7c0.1,0,0.2,0,0.4,0c0.3,0,0.6-0.1,0.9-0.2c0.4-0.2,0.6-0.6,0.8-1l9.5-47.5
		C45.8,3.2,45.7,2.8,45.4,2.4z"/>
</g>
</svg>
