<?xml version="1.0" encoding="utf-8"?>
<!-- Generator: Adobe Illustrator 27.7.0, SVG Export Plug-In . SVG Version: 6.00 Build 0)  -->
<svg version="1.1" id="Layer_1" xmlns="http://www.w3.org/2000/svg" xmlns:xlink="http://www.w3.org/1999/xlink" x="0px" y="0px"
	 viewBox="0 0 128.5 30.6" style="enable-background:new 0 0 128.5 30.6;" xml:space="preserve">
<style type="text/css">
	.st0{fill:#FFFFFF;}
</style>
<g>
	<path class="st0" d="M15,28.9v-8.3h-4.2v8.3H6V8.7c0-1.7,1.6-3.5,3.3-3.5h7.3c1.8,0,3.2,1.7,3.2,3.5v20.2H15z M15.2,9.4h-4.4V16
		h4.4V9.4z"/>
	<path class="st0" d="M35,28.9V13.3h-4.4v15.6h-4.7V8.8h10.5c1.8,0,3.3,1.4,3.3,3.1v16.9H35z"/>
	<path class="st0" d="M49.2,28.9c-1.8,0-3.3-1.4-3.3-3.1V11.5c0-1.8,0.9-2.7,2.3-2.7h6.6v-7h4.8v27.1H49.2z M55,12.9h-4.4v11.6H55
		V12.9z"/>
	<path class="st0" d="M74.9,19.4v-6.1h-4.4v15.6h-4.7V8.8h10.5c1.8,0,3.3,1.4,3.3,3.1v7.5H74.9z"/>
	<path class="st0" d="M97.2,22.1H90v2.5h8.7l0,4.3H88c-1.6,0-2.7-0.9-2.7-2.7V8.8h11.1c1.8,0,3.3,1.4,3.3,3.1v7.4
		C99.6,21.1,98.7,22.1,97.2,22.1z M94.9,13.3h-5V18h5V13.3z"/>
	<path class="st0" d="M108.5,28.9c-1.8,0-3.3-1.4-3.3-3.1v-7.4c0-1.8,0.9-2.7,2.3-2.7h7.2v-2.4h-8.7l0-4.4h10.8
		c1.6,0,2.7,0.9,2.7,2.7v17.4H108.5z M114.9,19.7h-5v4.8h5V19.7z"/>
</g>
<rect x="275" y="41" style="fill:none;" width="121" height="29"/>
<text transform="matrix(1 0 0 1 275 68.084)" style="font-family:'Liquorstore-Regular'; font-size:37px; letter-spacing:1;">Andrea</text>
</svg>
