<?xml version="1.0" encoding="utf-8"?>
<!-- Generator: Adobe Illustrator 27.7.0, SVG Export Plug-In . SVG Version: 6.00 Build 0)  -->
<svg version="1.1" id="Layer_1" xmlns="http://www.w3.org/2000/svg" xmlns:xlink="http://www.w3.org/1999/xlink" x="0px" y="0px"
	 viewBox="0 0 617 263" style="enable-background:new 0 0 617 263;" xml:space="preserve">
<style type="text/css">
	.st0{fill:#E95B1A;stroke:#000000;stroke-width:2.4295;stroke-linecap:round;stroke-linejoin:round;}
	.st1{fill:#FEE200;stroke:#000000;stroke-width:2.4295;stroke-linecap:round;stroke-linejoin:round;}
	.st2{fill:#0077BA;stroke:#000000;stroke-width:2.4295;stroke-linecap:round;stroke-linejoin:round;}
	.st3{fill:#F5BFDA;stroke:#000000;stroke-width:2.4295;stroke-linecap:round;stroke-linejoin:round;}
	.st4{fill:#FEF9F7;stroke:#000000;stroke-width:2.4295;stroke-linecap:round;stroke-linejoin:round;}
	.st5{fill:#02AC64;stroke:#000000;stroke-width:2.4295;stroke-linecap:round;stroke-linejoin:round;}
</style>
<g id="Layer_2_00000103949552124533376090000009978707424475355026_">
	<g id="Layer_1-2">
		<path class="st0" d="M49.2,119.5c8.6,7.7,16.7,16.4,27.2,21.9c20.8,11.2,43.4,8.1,60.6-0.6c17.3-8.8,28.4-21.7,39.3-35.6
			c7.1-9,15.3-19.5,19.9-30c7.5-17.2,26.3-23.5,46.8-18.5c7.4,1.8,14.1,5.4,20.1,9.9c14.6,10.8,25.6,25.2,37.5,38.2
			c14.8,16,27.6,32.5,42.2,48.6c13.1,14.8,28.3,29,47.9,35.8c20.7,7.4,45.2,5,57.4-8.8c2.8-3.3,5.2-7.1,7.2-11.1
			c10.4-18.8,18.7-38.6,24.9-59.2c3.4-10.9,6.4-22.3,13.9-30.9c7.6-8.7,21.2-13.7,34-9c5.8,2.2,10.7,6.2,15.2,10.1
			c16,14.5,27.6,32.1,38.8,49.8c3.6-0.7,7-1.5,10.4-2c-7.2-19.6-18.5-38.4-33.4-55c-7.5-8.4-16-15.4-26.4-20.9
			c-10.5-5.3-23.1-3-32.9-0.5c-13.1,3.5-18.2,14.7-25,24.2c-1.3,1.6-2.4,3.4-3.3,5.2c-0.7,1.8-1.4,3.7-1.7,5.6
			c-3.8,16.3-8.8,34-16.8,48.6c-2.1,3.7-3.3,7.9-5.3,11.4c-1.8,3.6-6.5,7.4-10.2,10.7c-8,7.2-18.5,12-30.6,12.4
			c-12.2,0.5-24.7-4.4-36.9-10.9c-15.8-8.5-24-20.6-36.9-31.5C318,114.5,305.8,97.9,292.8,83c-11.2-12.6-22.6-25.6-37.4-34.6
			c-14.8-9-34.2-13.2-48-6.6c-7.7,3.8-12.7,10.2-17.6,16.7c-8.4,11.6-15.9,23.8-22.4,36.3c-7.4,14.2-23.7,28.8-40.3,34.4
			c-6.4,2.1-13.2,3.3-20.3,3.3c-11.1,0.1-22.6-2.6-33-8.2c-11.9-6.6-23-18.4-33.4-27.1C34.2,92,27.4,86.7,19.7,84.7
			c-2.9-0.7-5.8-0.8-8.6-0.7c0.6,4.7,1.3,9.4,1.9,14.1c3.4,0,6.8,0.6,10.3,1.5C34.8,103.7,40.9,112.1,49.2,119.5z"/>
		<path class="st1" d="M41.2,76.3c6.7,6,11.9,13,18.5,19.2c11,10.3,28.1,20.6,43.3,18.7c15.2-1.9,28.6-13,38.2-22.9
			C152,80,161.4,67.6,169.4,54.5c7.6-12.4,14.8-26.3,29.6-31.8c12.5-4.7,28-2.5,42.3,1.6c9,2.6,18.1,6.1,26.3,10.9
			c24.1,14,38.8,37.8,53.8,59.8c15.1,21.8,33.7,44.7,60.4,53.2c26.4,8.3,55.8-2.4,64.7-23.8c4.3-10.4,4.1-22.5,6.7-33.5
			c3-12.4,9.2-23.8,18.2-32.9c17-16.8,47.1-25,72.6-12.4c17.7,8.9,29.5,25.3,37.5,41.7c6.4,13.3,12.9,26.1,17.5,39.8
			c3.4-0.4,6.6-0.8,10.2-1.1l-8.4-17.6c-12.6-26.3-27.3-54.8-55.1-70.1c-15.7-8.6-33.5-11.7-49.8-8.6C478,33.1,469,43.1,458.3,54.8
			c-8.1,8.9-12.9,20.2-16.7,31.4s-4.9,24-11.2,33.8c-9.9,15.6-28.1,24.3-50.3,16.8c-17.5-5.9-29.1-23.6-37.6-37.5
			c-17.4-28.7-39.2-57.2-69.9-75.5s-71.9-23.8-96.7-6c-21.3,15.4-23.4,39.2-37,59.4c-8.1,12.1-21.8,21.8-38.5,21.2
			C89.3,98,78.2,93,68.6,86.4S50.9,72.2,42.1,64.8c-7.6-6.5-16-12.6-25.7-14.8c-2.7-0.6-5.6-0.7-8.3-0.5c0.2,2,0.1,3.9,0.4,5.7
			c0.2,4.1,0.7,8.3,1,12.3c2.3-0.9,4.7-1.6,7.4-1.8C25.7,65.5,34.5,70.4,41.2,76.3z"/>
		<path class="st2" d="M59.3,137.9c6.2,7.5,13.1,14.8,21,20.5c13.6,9.7,36.2,19.5,51.1,12.4c9.7-4.6,17.8-13.9,24.3-21.3
			c6.6-7.6,13.5-15.9,19-24.9c7.4-12.9,17-24.2,26.9-35.2c6.7-7.3,17-17.7,29.7-15.9c10.1,1.5,19.3,7.4,27.2,13.7
			c22.2,17.2,40.3,38,57.7,58.9c11.4,13.5,22.5,27.3,36.2,38.9c13.7,11.7,30.2,20.5,47.9,23.5c14.9,2.4,30.7,3.5,43.7-1.3
			c19.8-7.4,29.3-26.8,33.3-46.1c4-19.3,3.9-39.9,11.2-58c2.2-5.4,4.5-13.1,9.1-17.1c4.5-4,15.3-8.1,22.4-7
			c9,1.3,19.2,9.1,25.3,15.2c9,9.1,15.2,20.2,21.1,30.8l4.4,8.1c3.5-0.9,6.9-1.9,10.6-2.7c-11-17.5-22.6-35.2-38.8-49.8
			c-4.5-4-9.4-7.9-15.2-10.1c-12.8-4.7-26.5,0.4-34,9c-7.5,8.6-10.5,20-13.9,30.9c-6.2,20.7-14.6,40.5-24.9,59.2
			c-2,4-4.4,7.5-7.2,11.1c-12.2,13.8-36.7,16.2-57.4,8.8c-19.5-7-34.6-21-47.9-35.8c-14.5-16-27.4-32.6-42.2-48.6
			c-11.8-13.2-22.6-27.4-37.5-38.2c-6-4.5-12.7-8.1-20.1-9.9c-20.6-4.8-39.4,1.5-46.8,18.5c-4.6,10.5-12.8,21-19.9,30
			c-10.7,14-22.4,27.2-39.3,35.6c-16.7,8.5-40,11.7-60.6,0.6c-10.5-5.7-18.5-14.1-27.2-21.9c-8.6-7.7-14.4-15.8-25.6-19.5
			c-3.4-1.1-6.8-1.7-10.3-1.5c0.9,6.9,2.1,13.8,3.1,20.8l2-0.7C37,114,47.9,124.4,59.3,137.9z"/>
		<path class="st3" d="M20.1,84.9c7.8,1.8,14.5,7.3,20.7,12.5c10.4,8.6,21.5,20.5,33.4,27.1c10.3,5.6,21.8,8.3,33,8.2
			c7-0.1,13.9-1.2,20.3-3.3c16.4-5.6,32.9-20.2,40.3-34.4c6.6-12.7,14-24.7,22.4-36.3c4.9-6.5,9.9-12.9,17.6-16.7
			c13.9-6.5,33.2-2.4,48,6.6c14.8,9,26.3,22,37.4,34.6c12.8,14.8,25.2,31.5,40.3,44.4c13,10.9,21.2,23,36.9,31.5
			c12,6.4,23.4,11.6,36.9,10.9c13.4-0.5,22.7-5.3,30.6-12.4c3.7-3.3,7.9-6.5,10.2-10.7c2.3-4.2,3.2-7.7,5.3-11.4
			c8.3-14.7,13-32.3,16.8-48.6c0.3-1.9,0.9-3.7,1.7-5.6c0.9-1.8,2-3.6,3.3-5.2c6.8-9.5,11.9-20.9,25-24.2c9.8-2.5,22.9-4.7,32.9,0.5
			c10,5.2,18.7,12.3,26.4,20.9c14.9,16.6,26.3,35.3,33.4,55l6.5-1.1c-4.6-13.7-11.1-26.5-17.8-40.2c-7.9-16.3-19.6-32.9-37.5-41.7
			c-25.5-12.6-55.6-4.3-72.6,12.4c-9,9.2-15.3,20.3-18.2,32.9c-2.4,11.2-2.4,23.1-6.7,33.5c-8.9,21.4-38.3,32.2-64.7,23.8
			c-26.6-8.4-45.3-31.3-60.4-53.2c-15-22-29.6-45.7-53.8-59.8c-8.2-4.9-17.1-8.2-26.3-10.9c-14.3-4.1-29.7-6.4-42.3-1.6
			c-14.8,5.5-21.8,19.5-29.6,31.8c-8,13.1-17.4,25.5-28.2,36.8c-9.4,10.1-22.2,20.8-38.2,22.9c-16,2-32.3-8.2-43.3-18.7
			c-6.6-6.2-11.8-13.2-18.5-19.2s-15.5-10.8-24-10.4c-2.6,0.2-5.2,0.8-7.4,1.8c0.4,5.5,1.1,11,1.8,16.5
			C14.3,84.1,17.1,84.4,20.1,84.9z"/>
		<path class="st4" d="M297.1,143.2c26.1,30.6,53.7,68.7,87.7,92.6c35.9,25.3,83.7,22.7,107-5.8c1.9-2.5,3.7-5,5.2-7.7
			c13.2-23.5,13.1-50.7,13.2-78.1c0.2-10.9,0.5-22.6,7.5-30.9c9.6-11.7,25.9-5.8,33.2,7.7c2.9,5.3,4.3,10.7,6.1,16.4
			c2.6-1,5.4-2,8.2-2.9c-4.3-9.8-9-19.6-16.8-28c-4.6-5-10.3-9.3-16.6-11.8c-6.4-2.4-13.7-2.9-19.1-0.1c-6.8,3.4-9.6,10.8-10.1,18.2
			c-1.4,24.2,2.6,49.4-0.8,73.5c-2.1,16.1-8.5,32.1-22.5,41c-12.5,8-29.7,9.6-46.4,7.1c-42.4-6.3-76.6-31.8-103.9-62.8
			c-16.7-19-31.6-39.3-49.8-57.2c-11.4-11.2-25.3-22.6-41.9-23.9c-9.6-0.6-17.1,5.1-22.8,11c-10.2,10.1-18.3,21.8-24.4,34.8
			c-3.1,6.2-5.5,12.8-9.2,18.8c-14.6,23.5-47.8,35.2-80,27.7c-21.7-5-36.5-29.2-55.5-41.4c-5-3.3-10.5-6.1-16.4-6.3
			c-3.2-0.1-6.4,0.4-9.1,1.7c1,4.5,1.9,9,2.9,13.5c2.2-0.8,4.5-1.2,7.1-1.2c6.5-0.1,13,2.9,18.6,7c8,6.1,12.1,14.1,18.7,21
			c6.6,7,14.5,14.3,23.2,19.3c14.9,8.4,37,14.4,53.2,13.2c38.5-2.9,57.3-36.7,70.2-64.6c5.1-11.1,8.4-20.3,19-27.8
			c10.6-7.4,22.9-9.3,35.8-1.1C279.7,123.8,288.7,133.3,297.1,143.2z"/>
		<path class="st5" d="M29.2,135.5c5.9,0.3,11.4,3,16.4,6.3c18.8,12.1,33.8,36.4,55.5,41.4c32.2,7.4,65.5-4.2,80-27.7
			c3.7-6,6.1-12.6,9.2-18.8c6-12.8,14.3-24.4,24.4-34.8c5.8-6,13.2-11.6,22.8-11c16.6,1.3,30.5,12.7,41.9,23.9
			c18.2,17.9,33.1,38.1,49.8,57.2c27.3,31,61.3,56.7,103.9,62.8c16.7,2.5,33.9,0.9,46.4-7.1c14-9.1,20.4-25,22.5-41
			c3.1-24-0.7-49.1,0.8-73.5c0.5-7.4,3.1-14.8,10.1-18.2c5.3-2.8,12.7-2.4,19.1,0.1c6.4,2.4,12.2,6.9,16.6,11.8
			c7.6,8.2,12.6,18.1,16.8,28c2-0.7,4.1-1.3,6.2-1.8L567,125c-5.9-10.8-12.1-21.7-21.1-30.8c-6.1-6.1-16.2-14-25.3-15.2
			c-7.1-0.9-17.7,3.1-22.4,7c-4.7,3.9-7,11.7-9.1,17.1c-7.3,18.2-7.3,38.8-11.2,58c-4,19.3-13.5,38.7-33.3,46.1
			c-13,4.9-28.8,3.6-43.7,1.3c-17.7-2.8-34.1-11.8-47.9-23.5c-13.7-11.7-24.8-25.4-36.2-38.9c-17.4-20.9-35.7-41.7-57.7-58.9
			c-8.1-6.4-17.3-12.3-27.2-13.7c-12.7-1.8-23,8.6-29.7,15.9c-10,11.2-19.6,22.5-26.9,35.2c-5.3,9.1-11.9,16.8-19,24.9
			c-7,7.9-14.8,16.7-24.3,21.3c-14.9,7.2-37.6-2.7-51.1-12.4c-8.1-5.8-14.9-13-21-20.5c-11.3-13.7-22.3-23.9-40.5-19.4l-2,0.7
			c1.1,6.1,2.2,12.1,3.4,18.1C22.7,136.1,25.8,135.4,29.2,135.5z"/>
	</g>
</g>
</svg>
