<?xml version="1.0" encoding="utf-8"?>
<!-- Generator: Adobe Illustrator 27.7.0, SVG Export Plug-In . SVG Version: 6.00 Build 0)  -->
<svg version="1.1" id="Layer_1" xmlns="http://www.w3.org/2000/svg" xmlns:xlink="http://www.w3.org/1999/xlink" x="0px" y="0px"
	 viewBox="0 0 486.4 352.8" style="enable-background:new 0 0 486.4 352.8;" xml:space="preserve">
<style type="text/css">
	.st0{fill:#E95B1A;stroke:#000000;stroke-width:2.98;stroke-linecap:round;stroke-miterlimit:10;}
	.st1{fill:#0077BA;stroke:#000000;stroke-width:2.98;stroke-linecap:round;stroke-miterlimit:10;}
	.st2{fill:#FEF9F7;stroke:#000000;stroke-width:2.98;stroke-linecap:round;stroke-miterlimit:10;}
	.st3{fill:#F5BFDA;stroke:#000000;stroke-width:2.98;stroke-linecap:round;stroke-miterlimit:10;}
	.st4{fill:none;stroke:#000000;stroke-width:2.98;stroke-linecap:round;stroke-miterlimit:10;}
</style>
<g id="Layer_2_00000134953623673816283540000014254358174963370642_">
	<g id="Layer_1-2">
		<path class="st0" d="M474.7,345c-11.5,9.4-35.9,8-46.9-1.5s-10.5-29-14.9-44.2c-2.9-10.2-8.8-19.3-14.8-28.1s-12.9-18.6-21.2-26.1
			c-14-12.5-38-20.9-56.5-21.4c-8.4-0.2-17.1,0.9-25-1.8c-9.5-3.2-16.3-11.2-23.3-18.2c-14.8-14.8-35.4-19.2-55.3-22.9
			c-7.5-1.4-15.2-2.8-22.7-1.5c-13.5,2.4-27,13.2-37.9,21.1s-23.6,23-39.7,18.3c-9.8-2.9-17.1-12.5-27.3-13.8
			c-12.9-1.6-22.8,10.2-33.3,17.8s-23,11.2-35.2,8.8c-9.3-1.8-18.6-8.6-19.2-18.1c-0.3-5.2,2.1-10.2,4.9-14.6
			c5.3-8.5,12.2-16,20.3-22c4.6-3.4,10.1-7.3,9.9-13s-7-9.6-12.3-12.8c-7.2-4.3-13.5-10.6-16.7-18.4s-3.2-17.1,1.3-24.3
			C12.4,102.8,18,99,23.8,96c13.4-6.9,28.1-11.5,43.1-7.8c5.9,1.4,12.4,5.2,17.6-0.5c1.8-1.9,2.3-4.6,2.9-7.2
			c2.3-10.9,6.7-22.7,16.7-27.6c12.9-6.4,26.7-1,38.3,5.6s21.5,12.9,32.8,2.6s7.7-27.9,16.6-39.2S216.7,0,233.7,1.7
			s31.6,13.7,36.3,29.6c2.6,8.6,2.2,17.7,3,26.6c0.8,10.6,4.5,26.6,16.8,29.6c13.9,3.3,27.2-6.5,41-2c15,5.1,28.3,14.4,38.3,26.7
			c8.9,11.4,12.2,28.1,20.2,40.5c14.9,23.1,43.5,34.5,63.8,52.7c27.5,24.6,30.7,71.1,31.7,106.3C485.2,323.7,484,337.3,474.7,345z"
			/>
		<path class="st1" d="M141.7,127.6c-15.8,7.8-30.9,15.6-46.6,23.6c-4.3-9-5.4-19.2-3.1-28.9c1.3-5.4,4.8-9.9,10.3-11.5
			c7.1-2.1,15.6-0.2,22.2,2.5c4.3,1.6,8.2,4.1,11.5,7.3C138.1,122.7,140,125.1,141.7,127.6z"/>
		<path class="st2" d="M142.1,170.4c-5.8,4.5-13.9,5.3-21,3.3c-11.7-3.1-20.9-11.8-26-22.5c15.7-8,30.8-15.8,46.6-23.6
			c3.8,5.6,6.4,11.9,7.8,18.5C151.2,154.8,149.1,164.8,142.1,170.4z"/>
		<path d="M141.9,129c1.8,3.7,3.1,7.7,3.8,11.8c0.7,4.1,0,8.4-2,12.1c-2.1,3.6-6.1,6.2-10.3,5.9c-3.4-0.3-6.5-1.7-9-4
			c-2.3-2-4-4.6-5.8-7c-0.5-0.5-3-4.3-3.8-4c3.1-1.3,4.6-3.1,7.7-4.4C129.3,136.6,135.8,133.1,141.9,129z"/>
		<path class="st3" d="M281.1,143.1c0.4,21.5,24.3,39.2,41.8,46.7c3.6,1.6,8.1,2.4,11.2-0.7s2.4-7.1,1.6-10.8
			c-2.2-10.6-7.7-20.3-14.4-28.7s-13.8-17.5-23.1-20.9s-15.6,1.2-16.8,9.8C281.2,140,281.1,141.6,281.1,143.1z"/>
		<path class="st4" d="M296.6,120c-6.3-3.4-13.3-1.1-18.5,3.3c-4,3.3-6.5,8-7,13.2"/>
		<path class="st4" d="M345.1,176.1c2,4.2,2.4,9.1,1,13.6c-1,3.5-3.7,7-7.3,7.2"/>
		<path class="st4" d="M95.4,151c15.7-7.8,30.2-15.5,46-23.2"/>
		<path class="st1" d="M237.3,84.8c-15.8,7.8-30.9,15.7-46.6,23.6c-4.3-9-5.4-19.1-3.1-28.8c1.3-5.4,4.8-10,10.2-11.6
			c7.2-2.1,15.7-0.2,22.3,2.5c4.3,1.7,8.2,4.1,11.5,7.3C233.7,80,235.6,82.3,237.3,84.8z"/>
		<path class="st2" d="M237.7,127.6c-5.8,4.5-13.9,5.3-21,3.4c-11.7-3.2-20.9-11.9-26-22.6c15.7-7.9,30.8-15.8,46.6-23.6
			c3.8,5.6,6.4,11.9,7.8,18.6C246.8,112.1,244.7,122.1,237.7,127.6z"/>
		<path d="M237.5,86.2c1.8,3.8,3.1,7.8,3.8,11.9c0.7,4.1,0,8.4-2,12.1c-2.1,3.6-6.2,6.2-10.3,5.9c-3.4-0.3-6.6-1.7-9.1-4
			c-2.1-2.2-4-4.6-5.7-7.1c-0.5-0.5-3-4.3-3.8-4c3.1-1.3,4.6-3,7.7-4.3C224.9,93.8,231.4,90.3,237.5,86.2z"/>
		<path class="st4" d="M191,108.3c15.7-7.9,30.2-15.6,46-23.2"/>
	</g>
</g>
</svg>
