<?xml version="1.0" encoding="utf-8"?>
<!-- Generator: Adobe Illustrator 27.7.0, SVG Export Plug-In . SVG Version: 6.00 Build 0)  -->
<svg version="1.1" id="Layer_1" xmlns="http://www.w3.org/2000/svg" xmlns:xlink="http://www.w3.org/1999/xlink" x="0px" y="0px"
	 viewBox="0 0 494 320" style="enable-background:new 0 0 494 320;" xml:space="preserve">
<style type="text/css">
	.st0{fill:#E95B1A;stroke:#000000;stroke-width:1.2986;stroke-linecap:round;stroke-linejoin:round;}
	.st1{fill:#FEE200;stroke:#000000;stroke-width:1.2986;stroke-linecap:round;stroke-linejoin:round;}
	.st2{fill:#0077BA;stroke:#000000;stroke-width:1.2986;stroke-linecap:round;stroke-linejoin:round;}
	.st3{fill:#F5BFDA;stroke:#000000;stroke-width:1.2986;stroke-linecap:round;stroke-linejoin:round;}
	.st4{fill:#FEF9F7;stroke:#000000;stroke-width:1.2986;stroke-linecap:round;stroke-linejoin:round;}
	.st5{fill:#02AC64;stroke:#000000;stroke-width:1.2986;stroke-linecap:round;stroke-linejoin:round;}
	.st6{fill:#E95B1A;stroke:#000000;stroke-width:1.6156;stroke-linecap:round;stroke-miterlimit:10;}
	.st7{fill:#0077BA;stroke:#000000;stroke-width:1.6156;stroke-linecap:round;stroke-miterlimit:10;}
	.st8{fill:#FEF9F7;stroke:#000000;stroke-width:1.6156;stroke-linecap:round;stroke-miterlimit:10;}
	.st9{fill:#F5BFDA;stroke:#000000;stroke-width:1.6156;stroke-linecap:round;stroke-miterlimit:10;}
	.st10{fill:none;stroke:#000000;stroke-width:1.6156;stroke-linecap:round;stroke-miterlimit:10;}
</style>
<g id="Layer_2_00000103949552124533376090000009978707424475355026_">
	<g id="Layer_1-2">
		<path class="st0" d="M214.8,200.4c5.1,2.6,10,5.8,15.8,6.8c11.3,2.1,21.5-4,28.4-12.2c6.9-8.2,10.4-17.5,13.6-27.4
			c2.1-6.4,4.5-13.8,5.2-20.4c1.2-10.9,9.1-18.1,19.4-19.4c3.7-0.4,7.4,0.2,10.8,1.5c8.3,3.1,15.4,8.9,22.8,13.8
			c9.1,5.9,17.4,12.6,26.4,18.6c8.1,5.6,17.2,10.5,27.3,10.4c10.7,0,21.9-6.1,25.7-16.1c0.9-2.4,1.5-4.9,1.9-7.5
			c2.3-12.4,3.5-25,3.6-37.6c0.1-6.7-0.1-13.6,2.3-19.8c2.4-6.3,8.1-11.7,14.7-11.6c3,0.1,5.9,1.3,8.5,2.6
			c9.5,4.9,17.3,12.4,25,19.9c1.6-1.1,3.1-2.2,4.6-3.1c-6-9.4-13.9-17.6-23.2-23.9c-4.7-3.1-9.6-5.4-15.2-6.4
			c-5.6-0.9-11.3,2.8-15.5,6.1c-5.6,4.5-6.5,11.6-8.4,18.2c-0.4,1.2-0.7,2.3-0.8,3.5c-0.1,1.1-0.1,2.3,0,3.4
			c0.4,9.8,0.5,20.5-1.3,30.2c-0.5,2.5-0.5,5-0.9,7.3c-0.4,2.4-2,5.4-3.3,7.9c-2.8,5.5-7,10.3-12.7,12.8c-5.7,2.7-12.2,2.4-18.8,1.2
			c-8.6-1.6-14.1-6.7-21.6-10.2c-8.9-4.2-16.8-11-25-16.7c-7-4.8-14.1-9.7-22.3-11.8c-8.2-2.1-17.8-0.6-23.4,5.7
			c-3.1,3.6-4.6,8.1-6,12.6c-2.3,8-4.2,16.3-5.6,24.4c-1.5,9.3-7.2,20.6-14.2,26.9c-2.7,2.4-5.7,4.4-9.1,5.8c-5.2,2.2-11,3-16.6,1.9
			c-6.5-1.3-13.3-5.7-19.4-8.4c-3.6-1.7-7.5-3.3-11.4-2.9c-1.4,0.2-2.8,0.7-4.1,1.3c0.9,2.5,1.9,4.9,2.8,7.4c1.6-0.7,3.3-1,5-1.2
			C205.9,194.5,209.9,198,214.8,200.4z"/>
		<path class="st1" d="M205.2,178.1c3.9,2,7.4,4.9,11.3,7c6.5,3.5,16,5.9,22.9,1.9c6.9-4,11.7-12.8,14.8-20.1
			c3.5-8.4,6.2-17.1,8.2-25.9c1.9-8.3,3.4-17.4,9.5-23.3c5.2-5.1,12.8-6.9,20-7.4c4.6-0.3,9.3-0.2,13.8,0.9
			c13.2,3,23.4,13.3,33.4,22.5c10,9.1,21.9,18.1,35.6,17.6c13.5-0.6,25.8-12.2,27.1-25.8c0.6-6.6-1.1-13.2-1.4-19.8
			c-0.3-7.4,1.1-14.9,4-21.7c5.7-12.6,18.7-23,32.3-21.1c9.5,1.4,17.3,8.2,23.3,15.7c4.8,6.1,9.6,11.9,13.7,18.6
			c1.5-0.9,3-1.8,4.6-2.6l-6.4-8.1c-9.5-12.1-20.3-24.9-35.4-28c-8.5-1.7-17.3,0.1-24.5,5c-7.9,5.5-10.7,12.7-14.2,21.3
			c-2.6,6.5-3.3,13.7-3.5,20.6c-0.3,6.9,1,14.2-0.7,20.8c-2.5,10.5-9.9,18.9-21.3,19.1c-9,0.1-16.9-7.3-22.7-13.4
			c-12.1-12.5-26.2-23.9-43.1-28c-16.9-4.1-37,0.9-46.2,15.6c-7.9,12.7-5.6,26.3-9.3,40.1c-2.2,8.3-7.2,16.3-15.2,19.2
			c-5.3,1.9-11.1,1.3-16.5-0.4c-5.4-1.7-10.3-4.4-15.4-6.8c-4.4-2.1-9.2-3.8-14.1-3.2c-1.3,0.2-2.7,0.7-3.9,1.3
			c0.3,1.1,0.6,2.1,0.9,3.1c0.7,2.2,1.4,4.5,2.1,6.6c1-1,2-1.8,3.2-2.4C196.4,175.2,201.2,176.2,205.2,178.1z"/>
		<path class="st2" d="M222.1,208.6c3.9,2.9,8.1,5.6,12.7,7.2c7.7,2.7,19.7,3.7,25.7-3.2c3.9-4.5,6.5-11.2,8.5-16.5
			c2-5.5,4.2-11.4,5.5-17.5c1.7-8.5,4.7-16.7,7.8-24.7c2.1-5.3,5.5-13.1,11.7-14.6c4.9-1.2,10.1,0.3,14.6,2.2
			c12.8,5.2,24.1,13.1,35.1,21.2c7.2,5.2,14.3,10.7,22.3,14.4c8,3.8,17,5.4,25.6,3.6c7.3-1.6,14.9-4.1,20.3-9.2
			c8.3-7.9,10.1-20.5,9.3-32c-0.8-11.4-3.6-22.8-2.7-34.2c0.3-3.4,0.3-8.1,1.9-11.2c1.6-3.1,6.1-7.5,9.6-8.3
			c4.4-1,10.2,1.3,13.9,3.4c5.5,3.3,9.9,8.2,14.1,12.9l3.2,3.6c1.5-1.2,3-2.4,4.6-3.5c-7.6-7.5-15.4-15-25-19.9
			c-2.6-1.3-5.5-2.6-8.5-2.6c-6.7-0.1-12.4,5.4-14.7,11.6c-2.4,6.2-2.2,13.1-2.3,19.8c-0.1,12.6-1.3,25.2-3.6,37.6
			c-0.4,2.6-1.1,5-1.9,7.5c-3.9,10-15,16.1-25.7,16.1c-10.1,0-19.1-4.8-27.3-10.4c-9-6-17.3-12.7-26.4-18.6
			c-7.3-5-14.4-10.7-22.8-13.8c-3.4-1.3-7.1-2-10.8-1.5c-10.3,1.4-18.3,8.5-19.4,19.4c-0.7,6.7-3.2,14.1-5.2,20.4
			c-3.1,9.8-6.8,19.4-13.6,27.4c-6.7,8-17.2,14.3-28.4,12.2c-5.7-1.1-10.6-4.1-15.8-6.8c-5.1-2.6-8.9-5.9-14.7-5.8
			c-1.7,0-3.4,0.4-5,1.2c1.4,3.6,2.8,7.2,4.3,10.9l0.8-0.8C208.4,199.7,214.9,203.4,222.1,208.6z"/>
		<path class="st3" d="M196.4,187c3.9-0.5,7.8,1.2,11.4,2.9c6.1,2.7,12.9,7.1,19.4,8.4c5.6,1.1,11.4,0.3,16.6-1.9
			c3.3-1.4,6.4-3.4,9.1-5.8c6.9-6.3,12.7-17.6,14.2-26.9c1.4-8.3,3.2-16.4,5.6-24.4c1.4-4.5,2.9-9.1,6-12.6
			c5.6-6.3,15.2-7.8,23.4-5.7c8.2,2.1,15.3,7,22.3,11.8c8,5.7,16.1,12.5,25,16.7c7.6,3.5,13.1,8.6,21.6,10.2
			c6.5,1.2,12.6,1.8,18.8-1.2c6.2-2.9,9.9-7.4,12.7-12.8c1.3-2.5,2.8-5.1,3.3-7.9s0.4-4.9,0.9-7.3c1.9-9.7,1.7-20.4,1.3-30.2
			c-0.1-1.1-0.1-2.2,0-3.4c0.2-1.2,0.5-2.4,0.8-3.5c1.9-6.6,2.7-13.8,8.4-18.2c4.2-3.3,10.1-7.1,15.5-6.1s10.5,3.1,15.2,6.4
			c9.3,6.3,17.1,14.3,23.2,23.9l2.9-1.9c-4-6.7-8.8-12.5-13.8-18.7c-5.9-7.5-13.7-14.3-23.3-15.7c-13.7-2-26.7,8.5-32.3,21.1
			c-3,6.8-4.4,14.2-4,21.7c0.4,6.6,2,13.3,1.4,19.8c-1.3,13.6-13.6,25.2-27.1,25.8c-13.6,0.5-25.5-8.4-35.6-17.6
			c-10-9.2-20.1-19.5-33.4-22.5c-4.5-1.1-9.1-1.2-13.8-0.9c-7.3,0.5-14.8,2.3-20,7.4c-6.2,5.9-7.6,15-9.5,23.3
			c-2,8.8-4.7,17.5-8.2,25.9c-3.1,7.4-7.6,15.8-14.8,20.1s-16.3,1.8-22.9-1.9c-3.9-2.1-7.3-5-11.3-7c-3.9-2-8.8-3-12.7-1
			c-1.2,0.6-2.3,1.5-3.2,2.4c1,3,2,5.9,3.1,8.8C193.6,187.7,195,187.3,196.4,187z"/>
		<path class="st4" d="M334.3,165.1c16.4,11.8,34.6,27.4,53.8,34c20.3,6.9,42.4-3.9,49.4-24.1c0.6-1.7,1-3.5,1.4-5.2
			c3-15.5-0.8-30.6-4.5-45.7c-1.4-6.1-2.8-12.6-0.7-18.5c2.9-8.4,11.4-8.3,16.6-2.2c2.1,2.3,3.5,5.1,5.1,7.9
			c1.1-1.1,2.3-2.2,3.4-3.2c-3.4-4.6-6.9-9-11.7-12.2c-2.9-1.9-6.1-3.2-9.4-3.3c-3.3-0.1-6.8,1.1-9,3.7c-2.7,3.2-3,7.8-2.2,12
			c2.7,13.7,7.9,26.8,9.7,40.7c1.2,9.3,0.4,19.4-4.9,27.1c-4.8,6.9-12.6,11.1-20.8,13c-20.8,4.8-40.3-2.6-57.3-14.4
			c-10.4-7.3-20.2-15.5-31.2-21.9c-6.9-4-14.9-7.5-22.9-5c-4.6,1.5-7.3,6.2-9.2,10.5c-3.4,7.6-5.6,15.6-6.7,24
			c-0.6,4.1-0.8,8.2-1.8,12.2c-3.6,15.8-17.6,28.8-33.8,31c-10.8,1.5-21.1-9-31.6-12c-2.8-0.8-5.8-1.3-8.6-0.3
			c-1.5,0.6-3,1.5-4.1,2.7c1.1,2.3,2.1,4.6,3.2,6.9c0.9-0.9,2-1.5,3.1-2c3-1.4,6.5-0.9,9.7,0.3c4.6,1.8,7.6,5.4,11.6,7.9
			c4.1,2.5,8.7,5.1,13.5,6.1c8.1,1.7,19.3,0.7,26.8-3.1c17.7-9.1,21.9-31.5,24.1-49.4c0.9-7.1,1.2-12.9,5.1-19
			c4-6.2,9.5-9.6,16.6-7.6C323.5,157.7,329.1,161.2,334.3,165.1z"/>
		<path class="st5" d="M207.6,213.2c2.8-1,5.7-0.5,8.6,0.3c10.5,3,20.8,13.5,31.6,12c16.1-2.2,30.1-15.1,33.8-31
			c0.9-4,1.1-8.1,1.8-12.2c1.1-8.2,3.4-16.3,6.7-24c1.9-4.5,4.6-9,9.2-10.5c8-2.5,16,1,22.9,5c11,6.3,20.7,14.6,31.2,21.9
			c17,11.8,36.5,19.3,57.3,14.4c8.2-1.9,16-6.2,20.8-13c5.3-7.8,6.2-17.8,4.9-27.1c-1.8-13.8-7-27-9.7-40.7c-0.8-4.2-0.6-8.8,2.2-12
			c2.1-2.6,5.6-3.8,9-3.7c3.3,0.1,6.7,1.4,9.4,3.3c4.7,3,8.4,7.5,11.7,12.2c0.8-0.8,1.8-1.6,2.7-2.2l-3.2-3.6
			c-4.2-4.8-8.6-9.6-14.1-12.9c-3.7-2.2-9.5-4.6-13.9-3.4c-3.5,0.9-7.9,5.2-9.6,8.3c-1.7,3.1-1.7,7.8-1.9,11.2
			c-0.9,11.5,1.9,22.8,2.7,34.2c0.8,11.4-1,24-9.3,32c-5.5,5.2-13,7.6-20.3,9.2c-8.7,1.9-17.6,0.1-25.6-3.6
			c-8-3.8-15.1-9.2-22.3-14.4c-11-8.2-22.4-16.1-35.1-21.2c-4.7-1.9-9.8-3.4-14.6-2.2c-6.2,1.5-9.6,9.3-11.7,14.6
			c-3.2,8.1-6.1,16.3-7.8,24.7c-1.2,6.1-3.3,11.6-5.5,17.5c-2.2,5.7-4.7,12.1-8.5,16.5c-6,6.9-18,5.9-25.7,3.2
			c-4.6-1.6-8.8-4.3-12.7-7.2c-7.2-5.3-13.7-8.9-21.6-2.8l-0.8,0.8c1.3,3.1,2.7,6.3,4,9.3C204.6,214.8,206,213.7,207.6,213.2z"/>
	</g>
</g>
<g id="Layer_2_00000134953623673816283540000014254358174963370642_">
	<g id="Layer_1-2_00000098212504966925090140000017873793047503749508_">
		<path class="st6" d="M264.7,306.2c-6.2,5.1-19.5,4.3-25.4-0.8c-6-5.2-5.7-15.7-8.1-24c-1.6-5.5-4.8-10.5-8-15.2s-7-10.1-11.5-14.2
			c-7.6-6.8-20.6-11.3-30.6-11.6c-4.6-0.1-9.3,0.5-13.6-1c-5.2-1.7-8.8-6.1-12.6-9.9c-8-8-19.2-10.4-30-12.4
			c-4.1-0.8-8.2-1.5-12.3-0.8c-7.3,1.3-14.6,7.2-20.5,11.4c-5.9,4.3-12.8,12.5-21.5,9.9c-5.3-1.6-9.3-6.8-14.8-7.5
			c-7-0.9-12.4,5.5-18.1,9.7c-5.7,4.1-12.5,6.1-19.1,4.8c-5-1-10.1-4.7-10.4-9.8c-0.2-2.8,1.1-5.5,2.7-7.9c2.9-4.6,6.6-8.7,11-11.9
			c2.5-1.8,5.5-4,5.4-7c-0.1-3.1-3.8-5.2-6.7-6.9c-3.9-2.3-7.3-5.7-9.1-10c-1.7-4.2-1.7-9.3,0.7-13.2c1.9-3,4.9-5,8.1-6.7
			c7.3-3.7,15.2-6.2,23.4-4.2c3.2,0.8,6.7,2.8,9.5-0.3c1-1,1.2-2.5,1.6-3.9c1.2-5.9,3.6-12.3,9.1-15c7-3.5,14.5-0.5,20.8,3
			c6.3,3.6,11.7,7,17.8,1.4s4.2-15.1,9-21.3s13.5-11.9,22.7-11s17.1,7.4,19.7,16c1.4,4.7,1.2,9.6,1.6,14.4c0.4,5.7,2.4,14.4,9.1,16
			c7.5,1.8,14.7-3.5,22.2-1.1c8.1,2.8,15.3,7.8,20.8,14.5c4.8,6.2,6.6,15.2,11,22c8.1,12.5,23.6,18.7,34.6,28.6
			c14.9,13.3,16.6,38.5,17.2,57.6C270.4,294.7,269.7,302,264.7,306.2z"/>
		<path class="st7" d="M84.1,188.4c-8.6,4.2-16.8,8.5-25.3,12.8c-2.3-4.9-2.9-10.4-1.7-15.7c0.7-2.9,2.6-5.4,5.6-6.2
			c3.8-1.1,8.5-0.1,12,1.4c2.3,0.9,4.5,2.2,6.2,4C82.2,185.7,83.2,187,84.1,188.4z"/>
		<path class="st8" d="M84.4,211.6c-3.1,2.4-7.5,2.9-11.4,1.8c-6.3-1.7-11.3-6.4-14.1-12.2c8.5-4.3,16.7-8.6,25.3-12.8
			c2.1,3,3.5,6.4,4.2,10C89.3,203.1,88.2,208.5,84.4,211.6z"/>
		<path d="M84.3,189.1c1,2,1.7,4.2,2.1,6.4c0.4,2.2,0,4.6-1.1,6.6c-1.1,2-3.3,3.4-5.6,3.2c-1.8-0.1-3.5-0.9-4.9-2.2
			c-1.2-1.1-2.2-2.5-3.1-3.8c-0.3-0.3-1.6-2.3-2.1-2.2c1.7-0.7,2.5-1.7,4.2-2.4C77.4,193.2,80.9,191.3,84.3,189.1z"/>
		<path class="st9" d="M159.7,196.8c0.2,11.7,13.2,21.3,22.7,25.3c2,0.9,4.4,1.3,6.1-0.4c1.7-1.7,1.3-3.8,0.9-5.9
			c-1.2-5.7-4.2-11-7.8-15.6S174,190.8,169,189s-8.5,0.7-9.1,5.3C159.8,195.1,159.7,195.9,159.7,196.8z"/>
		<path class="st10" d="M168.1,184.2c-3.4-1.8-7.2-0.6-10,1.8c-2.2,1.8-3.5,4.4-3.8,7.2"/>
		<path class="st10" d="M194.4,214.7c1.1,2.3,1.3,4.9,0.5,7.4c-0.5,1.9-2,3.8-4,3.9"/>
		<path class="st10" d="M59,201c8.5-4.2,16.4-8.4,24.9-12.6"/>
		<path class="st7" d="M136,165.2c-8.6,4.2-16.8,8.5-25.3,12.8c-2.3-4.9-2.9-10.4-1.7-15.6c0.7-2.9,2.6-5.4,5.5-6.3
			c3.9-1.1,8.5-0.1,12.1,1.4c2.3,0.9,4.4,2.2,6.2,4C134,162.5,135.1,163.8,136,165.2z"/>
		<path class="st8" d="M136.2,188.4c-3.1,2.4-7.5,2.9-11.4,1.8c-6.3-1.7-11.3-6.5-14.1-12.3c8.5-4.3,16.7-8.6,25.3-12.8
			c2.1,3.1,3.5,6.5,4.2,10.1C141.1,180,140,185.4,136.2,188.4z"/>
		<path d="M136.1,165.9c1,2,1.7,4.2,2.1,6.5c0.4,2.2,0,4.6-1.1,6.6c-1.1,2-3.4,3.4-5.6,3.2c-1.8-0.2-3.6-0.9-4.9-2.2
			c-1.1-1.2-2.2-2.5-3.1-3.8c-0.3-0.3-1.6-2.3-2.1-2.2c1.7-0.7,2.5-1.6,4.2-2.3C129.2,170,132.8,168.1,136.1,165.9z"/>
		<path class="st10" d="M110.9,177.9c8.5-4.3,16.4-8.5,24.9-12.6"/>
	</g>
</g>
</svg>
