<?xml version="1.0" encoding="utf-8"?>
<!-- Generator: Adobe Illustrator 27.7.0, SVG Export Plug-In . SVG Version: 6.00 Build 0)  -->
<svg version="1.1" id="Layer_1" xmlns="http://www.w3.org/2000/svg" xmlns:xlink="http://www.w3.org/1999/xlink" x="0px" y="0px"
	 viewBox="0 0 153 114" style="enable-background:new 0 0 153 114;" xml:space="preserve">
<style type="text/css">
	.st0{fill:#5C64CF;}
	.st1{fill:none;stroke:#000000;stroke-width:2;stroke-linecap:round;stroke-linejoin:round;}
	.st2{fill:#FEE200;stroke:#000000;stroke-width:2;stroke-linecap:round;stroke-linejoin:round;}
</style>
<path class="st0" d="M369,42.4l-5.9-33.2c0-0.2-0.1-0.3-0.2-0.4c-0.1-0.1-0.2-0.2-0.3-0.3c-0.1-0.1-0.3-0.1-0.4-0.2s-0.3,0-0.5,0
	l-33.2,5.8c-0.2,0-0.3,0.1-0.4,0.2c-0.1,0.1-0.2,0.2-0.3,0.3c-0.1,0.1-0.2,0.3-0.2,0.4c0,0.2,0,0.3,0,0.5c0,0.2,0.1,0.3,0.2,0.4
	s0.2,0.2,0.3,0.3c0.1,0.1,0.3,0.2,0.4,0.2c0.2,0,0.3,0,0.5,0l30.5-5.4L309,83l-43.7-30.6c-0.3-0.2-0.6-0.2-0.9-0.2
	c-0.3,0.1-0.6,0.2-0.8,0.5l-47.3,67.6c-0.1,0.1-0.2,0.3-0.2,0.4c-0.1,0.2-0.1,0.3-0.1,0.5s0.1,0.3,0.2,0.5c0.1,0.1,0.2,0.3,0.3,0.4
	c0.1,0.1,0.3,0.2,0.4,0.2c0.2,0,0.3,0,0.5,0s0.3-0.1,0.4-0.2c0.1-0.1,0.2-0.2,0.3-0.4L264.9,55l43.7,30.6c0.3,0.2,0.6,0.2,0.9,0.2
	s0.6-0.2,0.8-0.5l51.1-73l5.3,30.4c0,0.2,0.1,0.3,0.2,0.4c0.1,0.1,0.2,0.2,0.3,0.3c0.1,0.1,0.3,0.2,0.4,0.2c0.2,0,0.3,0,0.5,0
	c0.2,0,0.3-0.1,0.4-0.2c0.1-0.1,0.2-0.2,0.3-0.3c0.1-0.1,0.2-0.3,0.2-0.4C369,42.7,369,42.6,369,42.4z"/>
<path class="st1" d="M67.8,76.1c4.5,0.7,9,0.1,13.4,0.4c4.5,0.3,8.4,1.3,12.7,1"/>
<path class="st1" d="M73.8,91.7c0.5-3.2,1.4-6.3,2.5-9.4c0.4-1.2,1-2.3,1.8-3.2c0.8-0.9,2-1.4,3.2-1.2c1.2,0.3,2.2,1.1,2.9,2.1
	c2.8,3.2,5.5,6.6,8,10"/>
<path class="st1" d="M80.5,75.9c-1.1-4-1.9-8.1-2.3-12.3"/>
<path class="st2" d="M16.4,79.5c-2.7-1.5-6.7-0.6-9.2,0.8c-2.5,1.4-1.5,2-2,3.3c-0.5,1.2-0.4,2.5,0.2,3.6c0.6,0.7,1.3,1.3,2.1,1.9
	c2.1,1.2,4.3,1.9,6.7,2.3c2,0.2,4.4,0,5.7-1.5c1.4-1.5,1.3-3.9,0.4-5.8C19.6,82.2,18.2,80.6,16.4,79.5z"/>
<path d="M120.5,40.2c-0.1-2.8-2.4-5.1-5.2-5.4c-2.6-0.2-5.4,1.5-5.4,4.4c0,1.2,0.7,2.3,1.8,2.8c0,2.6,1.5,5.2,4.2,5.4
	S120.8,43.2,120.5,40.2z"/>
<path d="M54.8,36.5c-0.8-0.3-1.6-0.2-2.3,0.2c-0.5-0.2-1-0.3-1.6-0.2c-1.6,0.4-2.6,1.8-2.3,3.4c0.6,2.4,2.2,4.4,4.5,5.6
	c1.1,0.7,2.5,0.6,3.5-0.2c2.1-2.1,2.1-5.5,0-7.6C56.1,37.2,55.5,36.8,54.8,36.5z"/>
<path d="M71.5,4.3c-0.2,0.2-0.1,0.3-0.3,0.3c-3.8-0.2-4.2,5.6-0.3,5.8c2.2,0.1,4.4-1,5.5-2.9C78.2,4.3,73.3,1.1,71.5,4.3z"/>
<path d="M147.7,78.1c-0.8-1.7-2.7-2.6-4.6-2.3c-3.3,0.5-2.8,5.1-0.1,5.6C145.7,81.9,149.1,81.1,147.7,78.1z"/>
<path d="M108.6,100.3h-0.7c-3.8,0-4.2,5.8-0.4,5.8h0.7C111.9,106.1,112.3,100.3,108.6,100.3z"/>
<path d="M48.4,104.7c-3.8,0-4.2,5.9-0.3,5.9S52.3,104.7,48.4,104.7z"/>
</svg>
