<?xml version="1.0" encoding="utf-8"?>
<!-- Generator: Adobe Illustrator 27.7.0, SVG Export Plug-In . SVG Version: 6.00 Build 0)  -->
<svg version="1.1" id="Layer_1" xmlns="http://www.w3.org/2000/svg" xmlns:xlink="http://www.w3.org/1999/xlink" x="0px" y="0px"
	 viewBox="0 0 190.3 186.4" style="enable-background:new 0 0 190.3 186.4;" xml:space="preserve">
<style type="text/css">
	.st0{fill:#FEF9F7;stroke:#000000;stroke-width:2.98;stroke-linecap:round;stroke-linejoin:round;}
	.st1{fill:none;stroke:#000000;stroke-width:2.98;stroke-linecap:round;stroke-linejoin:round;}
	.st2{fill:#E95B1A;stroke:#000000;stroke-width:2.98;stroke-linecap:round;stroke-linejoin:round;}
	.st3{stroke:#000000;stroke-width:2.98;stroke-linecap:round;stroke-linejoin:round;}
	.st4{fill:#F5BFDA;stroke:#000000;stroke-width:2.98;stroke-linecap:round;stroke-linejoin:round;}
	.st5{fill:#F5BFDA;stroke:#000000;stroke-width:3.0827;stroke-linecap:round;stroke-linejoin:round;}
	.st6{fill:#E95B1A;stroke:#000000;stroke-width:2.2328;stroke-linecap:round;stroke-linejoin:round;}
	.st7{fill:#FFE029;}
	.st8{fill:none;stroke:#000000;stroke-width:3;stroke-linecap:round;stroke-linejoin:round;}
</style>
<g id="Layer_2_00000105397124371377624480000003106284265389197736_">
	<g id="Layer_1-2">
		<path class="st0" d="M-157.5,128c-11.8,13.3-34,20.6-50.1,9.3c-3.6-2.5-6.4-6-8.9-9.5c-8.9-12.1-15.5-25.7-19.5-40.1
			c0.4,0.3,0.8,0.5,1,0.9l8.2-6.4l1.9-1.3c0.1,2.3,0.5,4.7,1.1,6.9c4.1,14.1,10.6,27.4,19.1,39.4c7.2,10.2,19.5,15.2,31.7,10.7
			s12.5-14.7,12.5-24.9c0-9.7-1.3-19.4-3.9-28.8c-1.2-5.2-2.9-10.3-4.9-15.3c5.4,0.3,11,1.1,15.5,3.7c0.3,0.6,0.8,1.1,1.5,1.3
			c0.2,0.8,0.3,1.6,0.5,2.4C-148.8,93.4-144.9,113.7-157.5,128z"/>
		<path class="st1" d="M-193.7,2.8c8,3.3,15.5,7.9,22.1,13.5"/>
		<path class="st1" d="M-184,0.2l4.6,2.6c1.7,0.8,3.3,1.9,4.6,3.3"/>
		<path class="st1" d="M-226.1,128.3c3.6,5.5,8.2,10.3,13.5,14.2c3.5,2.6,7.5,4.9,11.9,5.2"/>
		<path class="st2" d="M-152.3,73.9c-0.7-0.2-1.2-0.7-1.5-1.3c-4.5-2.6-10.1-3.4-15.5-3.7l-6.7-0.2c-8,0-16,0.7-23.9,2.3
			c-8.9,1.7-17.4,5-25,9.9l-1.9,1.3l-8.2,6.4c-0.2-0.4-0.6-0.6-1-0.9c-2.3-8.5-3.6-17.3-3.7-26.2c-0.2-15.4,2.1-34.5,13.5-46
			c16-16.2,40.3-5.5,53.2,9.1c8.6,9.7,13.9,21.9,17.4,34.4C-154.3,64-153.2,69-152.3,73.9z"/>
		<path class="st3" d="M-160.5,113c0,10.2-1.7,20.9-12.5,24.9s-24.5-0.5-31.7-10.7c-8.5-12-15-25.3-19.1-39.4
			c-0.6-2.2-1-4.6-1.1-6.9c7.6-4.9,16.1-8.2,25-9.9c7.5-1.5,15.1-2.3,22.7-2.3h1.2l6.7,0.2c1.7,4.2,3.1,8.5,4.3,12.8l0.6,2.5
			C-161.8,93.5-160.5,103.2-160.5,113z"/>
		<path class="st4" d="M-165,81.7c-1,1.6-2,3.1-2.8,4.7c-2.2,4.6-4.3,9.2-6.7,13.8c-4.9,8.9-10.3,17.5-16.3,25.7
			c-0.4,0.6-1.1,1.1-1.5,0.6c-0.2-0.2-0.2-0.5-0.2-0.8c0.7-7.1,2.7-14.3,4.4-21.3c3-12,6.6-23.9,10.8-35.6h1.3l6.7,0.2
			C-167.6,73.1-166.2,77.3-165,81.7z"/>
		<path class="st0" d="M-61.1,125.8c-11.8,13.3-34,20.5-50,9.3c-3.6-2.5-6.4-6-9-9.5c-8.8-12.1-15.4-25.7-19.5-40.1
			c0.4,0.2,0.8,0.4,1,0.8c2.8-2,5.4-4.3,8.2-6.3l1.9-1.4c0.1,2.4,0.5,4.7,1.1,7c4.1,14.1,10.6,27.4,19.1,39.4
			c7.2,10.1,19.6,15.1,31.7,10.7s12.5-14.7,12.5-24.9c0-9.8-1.2-19.5-3.8-28.9c-1.2-4.2-2.7-10.1-5-15.2c5.4,0.3,11,1.1,15.5,3.6
			c0.3,0.7,0.9,1.2,1.6,1.3c0.1,0.8,0.3,1.7,0.4,2.5C-52.4,91.1-48.4,111.5-61.1,125.8z"/>
		<path class="st1" d="M-97.3,0.5c8,3.4,15.5,8,22.1,13.6"/>
		<path class="st1" d="M-87.6-2l4.7,2.5c1.7,0.9,3.2,2,4.6,3.3"/>
		<path class="st1" d="M-129.7,126c3.6,5.5,8.2,10.3,13.5,14.3c3.5,2.6,7.6,4.9,12,5.1"/>
		<path class="st2" d="M-55.8,71.6c-0.7-0.1-1.3-0.6-1.6-1.3c-4.5-2.5-10.1-3.3-15.5-3.6l-6.7-0.2c-8-0.1-16,0.7-23.9,2.3
			c-8.9,1.6-17.4,5-25,9.8l-1.9,1.4c-2.8,2-5.4,4.3-8.2,6.3c-0.2-0.4-0.6-0.6-1-0.8c-2.3-8.5-3.6-17.3-3.7-26.2
			c-0.1-15.5,2.1-34.5,13.6-46.1c15.9-16.1,40.3-5.5,53.1,9.1C-68,32-62.7,44.2-59.2,56.8C-57.8,61.7-56.7,66.7-55.8,71.6z"/>
		<path class="st3" d="M-64.1,110.8c0,10.2-1.6,20.9-12.5,24.9s-24.5-0.6-31.7-10.7c-8.5-12-15-25.3-19.1-39.4c-0.6-2.3-1-4.6-1.1-7
			c7.6-4.8,16.1-8.2,25-9.8c7.5-1.5,15.1-2.3,22.7-2.3h1.2l6.7,0.2c1.7,4.2,3.2,8.4,4.3,12.8c0.2,0.9,0.5,1.7,0.7,2.4
			C-65.3,91.3-64.1,101-64.1,110.8z"/>
		<path class="st4" d="M-68.6,79.5c-1,1.5-1.9,3.1-2.7,4.7c-2.3,4.6-4.4,9.2-6.8,13.7c-4.9,9-10.3,17.6-16.3,25.8
			c-0.4,0.5-1.1,1-1.5,0.6c-0.2-0.2-0.2-0.5-0.2-0.8c0.7-7.1,2.7-14.4,4.4-21.3c3-12.1,6.6-23.9,10.9-35.6h1.2l6.7,0.2
			C-71.2,70.9-69.7,75.1-68.6,79.5z"/>
	</g>
</g>
<g>
	<path class="st2" d="M456.1,40.7c11.8-13.3,34-20.5,50-9.3c3.6,2.5,6.4,6,9,9.5c8.8,12.1,15.4,25.7,19.5,40.1
		c-0.4-0.2-0.8-0.4-1-0.8c-2.8,2-5.4,4.3-8.2,6.3l-1.9,1.4c-12.9,8.6-38.9,13.4-55.6,11.9c-5.4-0.3-11-1.1-15.5-3.6
		c-0.3-0.7-0.9-1.2-1.6-1.3c-0.1-0.8-0.3-1.7-0.4-2.5C447.4,75.4,443.4,55,456.1,40.7z"/>
	<path class="st0" d="M450.8,94.9c0.7,0.1,1.3,0.6,1.6,1.3c4.5,2.5,10.1,3.3,15.5,3.6l6.7,0.2c8,0.1,16-0.7,23.9-2.3
		c8.9-1.6,17.4-5,25-9.8l1.9-1.4c2.8-2,5.4-4.3,8.2-6.3c0.2,0.4,0.6,0.6,1,0.8c2.3,8.5,3.6,17.3,3.7,26.2
		c0.1,15.5-2.1,34.5-13.6,46.1c-15.9,16.1-40.3,5.5-53.1-9.1c-8.6-9.7-13.9-21.9-17.4-34.5C452.8,104.8,451.7,99.8,450.8,94.9z"/>
	<g>
		<path class="st3" d="M528.1,132.9c0,10.2-1.6,20.9-12.5,24.9c-10.9,4-24.5-0.6-31.7-10.7c-8.5-12-15-25.3-19.1-39.4
			c-0.6-2.3-1-4.6-1.1-7c10.1,1,19.6-0.3,28.5-1.9c7.5-1.5,10.6-2.4,18-4.4l2.7-0.9l7.2-2.8c1.7,4.2,2.4,6.6,3.5,11
			c0.2,0.9,0.5,1.7,0.7,2.4C526.9,113.4,528.2,123.1,528.1,132.9z"/>
		<path class="st4" d="M524.7,106.7c-1,1.5-1.9,3.1-2.7,4.7c-2.3,4.6-4.4,9.2-6.8,13.7c-4.9,9-10.3,17.6-16.3,25.8
			c-0.4,0.5-1.1,1-1.5,0.6c-0.2-0.2-0.2-0.5-0.2-0.8c0.7-7.1,2.7-14.4,4.4-21.3c3-12.1,6.6-23.9,10.9-35.6h1.2l6.7,0.2
			C522.2,98.1,523.6,102.3,524.7,106.7z"/>
	</g>
</g>
<path d="M129.6,158.6c0.5,6.9-8.8,16-23.4,17.3c-13,1.2-26.5-1.5-30.1-8.5c-1.5-3-8.2-0.2-6.6,2.8c5,9.7,22.2,12.4,39.8,10.5
	c18.3-1.9,26.7-14.6,26.1-23.2C135.1,154.3,129.4,155.4,129.6,158.6z"/>
<g>
	<path class="st0" d="M416.3-77.6c0.7,0.1,1.3,0.6,1.6,1.3c4.5,2.5,34.8-6.5,42.6-8.1c8.9-1.6,35.8-5.9,38.6-7.9
		c0.2,0.4,0.6,0.6,1,0.8c2.3,8.5,3.6,17.3,3.7,26.2c0.1,15.5-2.1,34.5-13.6,46.1c-15.9,16.1-40.3,5.5-53.1-9.1
		c-8.6-9.7-13.9-21.9-17.4-34.5C418.3-67.7,417.2-72.7,416.3-77.6z"/>
	<g>
		<path class="st3" d="M493.6-39.6c0,10.2-1.6,20.9-12.5,24.9s-24.5-0.6-31.7-10.7c-8.5-12-15-25.3-19.1-39.4
			c-0.6-2.3-4.3-14.8-4.4-17.2c10.1,1,19.6-0.3,28.5-1.9c7.5-1.5,10.6-2.4,18-4.4l2.7-0.9l7.2-2.8c1.7,4.2,5.8,16.8,6.9,21.2
			c0.2,0.9,0.5,1.7,0.7,2.4C492.3-59.1,493.6-49.4,493.6-39.6z"/>
		<path class="st5" d="M487.5-70.9c-0.9,1.8-1.7,3.6-2.4,5.6c-2.1,5.4-4,10.9-6.2,16.2c-4.4,10.6-9.3,20.8-14.8,30.5
			c-0.4,0.6-1,1.2-1.4,0.7c-0.1-0.3-0.2-0.6-0.2-0.9c0.6-8.4,2.4-17,4-25.2c2.7-14.3,6-28.3,9.9-42.1h1.1l6.1-1.8
			C485.3-83.1,486.5-76,487.5-70.9z"/>
	</g>
	<path class="st6" d="M416.8-71.8c0,0-9.5-44.5,31.3-53.7c38.7-8.7,52.6,33.6,52.6,33.6L416.8-71.8z"/>
</g>
<g>
	<path class="st0" d="M333.2,73.4c0.7,0.3,1.1,1,1.1,1.8c3.4,3.9,34.9,5.7,42.9,6.9c8.9,1.5,35.6,6.6,38.9,5.7
		c0.1,0.4,0.3,0.8,0.7,1.1c-0.7,8.8-2.5,17.5-5.4,25.9c-5.2,14.6-13.7,31.7-28.5,38.7c-20.4,9.7-39.8-8.5-46.8-26.6
		c-4.8-12-5.6-25.3-4.6-38.4C331.7,83.4,332.4,78.4,333.2,73.4z"/>
	<g>
		<path class="st3" d="M393,135.4c-3.5,9.6-8.6,19.1-20.2,19.2c-11.6,0.1-22.8-8.9-26.2-20.8c-3.9-14.2-5.5-28.9-4.6-43.5
			c0.2-2.4,1-15.4,1.7-17.7c9.1,4.3,18.5,6.4,27.4,7.9c7.5,1.1,10.8,1.3,18.4,1.9l2.9,0.1l7.7-0.2c0.2,4.5-0.3,17.7-0.7,22.2
			c-0.1,0.9-0.1,1.8-0.2,2.5C398.5,116.7,396.4,126.3,393,135.4z"/>
		<path class="st5" d="M398,104c-1.5,1.4-2.9,2.8-4.2,4.4c-3.8,4.4-7.4,8.9-11.3,13.1c-7.7,8.5-15.8,16.4-24.2,23.7
			c-0.5,0.4-1.3,0.8-1.5,0.2c0-0.3,0-0.6,0.2-1c3.5-7.7,8.1-15.2,12.3-22.3c7.4-12.5,15.2-24.6,23.6-36.2l1,0.4l6.4,0.4
			C400,91.7,398.8,98.8,398,104z"/>
	</g>
	<path class="st6" d="M331.7,79c0,0,6.2-45,47.7-39.8c39.4,4.9,38,49.5,38,49.5s-25.3,2.6-46.4-0.3C353.7,86,331.7,79,331.7,79z"/>
</g>
<g>
	<path class="st0" d="M235.4,84.8c0.7,0.2,1.3,0.7,1.5,1.4c4.3,2.9,35.2-3.3,43.2-4.2c9-0.8,36.1-2.7,39.1-4.4
		c0.2,0.4,0.5,0.7,0.9,0.9c1.6,8.7,2,17.6,1.3,26.4c-1.3,15.4-5.2,34.2-17.7,44.7c-17.3,14.6-40.6,1.8-52.1-13.9
		c-7.7-10.4-11.9-23.1-14.2-35.9C236.5,94.8,235.9,89.8,235.4,84.8z"/>
	<g>
		<path class="st3" d="M309,129.6c-0.9,10.2-3.5,20.7-14.7,23.7c-11.2,3-24.3-2.8-30.6-13.5c-7.4-12.7-12.6-26.5-15.5-41
			c-0.4-2.3-2.9-15.2-2.9-17.5c9.9,1.9,19.5,1.5,28.5,0.7c7.6-0.8,10.8-1.5,18.3-2.8l2.8-0.7l7.4-2.1c1.4,4.3,4.2,17.2,4.9,21.7
			c0.1,0.9,0.3,1.7,0.5,2.5C309.5,110.1,309.9,119.9,309,129.6z"/>
		<path class="st5" d="M305.8,97.9c-1.1,1.7-2,3.5-2.9,5.3c-2.6,5.2-4.9,10.5-7.6,15.6c-5.3,10.1-11.2,19.9-17.4,29.1
			c-0.4,0.6-1.1,1.1-1.4,0.6c-0.1-0.3-0.1-0.6-0.1-1c1.4-8.3,4-16.7,6.2-24.7c4-14,8.5-27.7,13.6-41l1.1,0.1l6.3-1.2
			C304.7,85.5,305.3,92.7,305.8,97.9z"/>
	</g>
	<path class="st6" d="M235.4,90.6c0,0-5.4-45.1,36.1-50.6c39.3-5.2,49.3,38.2,49.3,38.2s-23.8,9-45,11.5
		C258.4,91.8,235.4,90.6,235.4,90.6z"/>
</g>
<g>
	<path class="st7" d="M396.4,43.2c-0.2,0.7-0.6,1.6-1.5,2.4c-0.5,0.4-1.2,0.9-2.3,1.3c0.6,0,1.6,0.4,2.1,0.7
		c1.2,0.9,2.4,2.4,2.7,3.9c0.1-1.5,0.9-2.9,1.9-3.8c0.3-0.3,1-0.6,1.7-0.8c-1.2-0.5-2.6-1.1-3.6-2.1
		C397.1,44.6,396.5,43.7,396.4,43.2z"/>
	<path d="M406.1,45.1c-0.6-0.2-1.2-0.2-1.8-0.2c-1.7-0.1-3.9-0.8-5.1-2.1c-1.5-1.6-1.1-4.2-1.2-6.2c0-1-1-1.7-2-1.5
		c-1.6,0.3-1.5,2.2-1.6,3.3c-0.2,1.9-0.4,3.7-1.8,5.2c-1.3,1.4-3.3,1.8-5.1,1.8c-0.5,0-0.9,0.3-1.2,0.6c-0.9,0.8-0.9,2.5,0.6,2.9
		c1.7,0.4,3.6,0.3,5.2,1c1.6,0.6,3.1,2.5,3.5,4.1c0.3,1.2,0.2,2.6,1.5,3.1c1,0.4,2.1,0,2.2-1c0.3-1.7-0.2-4.3,1.2-5.7
		c1.5-1.7,3.8-2.1,5.7-3c0.4-0.2,0.7-0.5,0.8-0.9c0-0.1,0-0.3,0-0.4C406.9,45.5,406.5,45.2,406.1,45.1z M399.3,47.8
		c-1,0.8-1.9,2.2-1.9,3.8c-0.3-1.4-1.5-3-2.7-3.9c-0.5-0.3-1.5-0.7-2.1-0.7c1.1-0.4,1.7-0.9,2.3-1.3c0.9-0.8,1.3-1.7,1.5-2.4
		c0.2,0.6,0.8,1.4,1.1,1.7c1,1,2.4,1.6,3.6,2.1C400.3,47.1,399.6,47.5,399.3,47.8z"/>
</g>
<g>
	<path class="st7" d="M411.9,25.9c-0.2,0.7-0.6,1.6-1.5,2.4c-0.5,0.4-1.2,0.9-2.3,1.3c0.6,0,1.6,0.4,2.1,0.7
		c1.2,0.9,2.4,2.4,2.7,3.9c0.1-1.5,0.9-2.9,1.9-3.8c0.3-0.3,1-0.6,1.7-0.8c-1.2-0.5-2.6-1.1-3.6-2.1C412.6,27.3,412,26.4,411.9,25.9
		z"/>
	<path d="M421.6,27.8c-0.6-0.2-1.2-0.2-1.8-0.2c-1.7-0.1-3.9-0.8-5.1-2.1c-1.5-1.6-1.1-4.2-1.2-6.2c0-1-1-1.7-2-1.5
		c-1.6,0.3-1.5,2.2-1.6,3.3c-0.2,1.9-0.4,3.7-1.8,5.2c-1.3,1.4-3.3,1.8-5.1,1.8c-0.5,0-0.9,0.3-1.2,0.6c-0.9,0.8-0.9,2.5,0.6,2.9
		c1.7,0.4,3.6,0.3,5.2,1c1.6,0.6,3.1,2.5,3.5,4.1c0.3,1.2,0.2,2.6,1.5,3.1c1,0.4,2.1,0,2.2-1c0.3-1.7-0.2-4.3,1.2-5.7
		c1.5-1.7,3.8-2.1,5.7-3c0.4-0.2,0.7-0.5,0.8-0.9c0-0.1,0-0.3,0-0.4C422.4,28.3,422,27.9,421.6,27.8z M414.8,30.5
		c-1,0.8-1.9,2.2-1.9,3.8c-0.3-1.4-1.5-3-2.7-3.9c-0.5-0.3-1.5-0.7-2.1-0.7c1.1-0.4,1.7-0.9,2.3-1.3c0.9-0.8,1.3-1.7,1.5-2.4
		c0.2,0.6,0.8,1.4,1.1,1.7c1,1,2.4,1.6,3.6,2.1C415.8,29.8,415.2,30.2,414.8,30.5z"/>
</g>
<g>
	<path class="st0" d="M100.4,61c0.7,0.3,1.1,1,1.1,1.8c3.4,3.9,34.9,5.7,42.9,6.9c8.9,1.5,35.6,6.6,38.9,5.7
		c0.1,0.4,0.3,0.8,0.7,1.1c-0.7,8.8-2.5,17.5-5.4,25.9c-5.2,14.6-13.7,31.7-28.5,38.7c-20.4,9.7-39.8-8.5-46.8-26.6
		c-4.8-12-5.6-25.3-4.6-38.4C99,71,99.6,65.9,100.4,61z"/>
	<g>
		<path class="st3" d="M160.2,123c-3.5,9.6-8.6,19.1-20.2,19.2s-22.8-8.9-26.2-20.8c-3.9-14.2-5.5-28.9-4.6-43.5
			c0.2-2.4,1-15.4,1.7-17.7c9.1,4.3,18.5,6.4,27.4,7.9c7.5,1.1,10.8,1.3,18.4,1.9l2.9,0.1l7.7-0.2c0.2,4.5-0.3,17.7-0.7,22.2
			c-0.1,0.9-0.1,1.8-0.2,2.5C165.7,104.3,163.6,113.8,160.2,123z"/>
		<path class="st5" d="M165.2,91.5c-1.5,1.4-2.9,2.8-4.2,4.4c-3.8,4.4-7.4,8.9-11.3,13.1c-7.7,8.5-15.8,16.4-24.2,23.7
			c-0.5,0.4-1.3,0.8-1.5,0.2c0-0.3,0-0.6,0.2-1c3.5-7.7,8.1-15.2,12.3-22.3c7.4-12.5,15.2-24.6,23.6-36.2l1,0.4l6.4,0.4
			C167.2,79.3,166,86.4,165.2,91.5z"/>
	</g>
	<path class="st6" d="M99,66.6c0,0,6.2-45,47.7-39.8c39.4,4.9,38,49.5,38,49.5s-25.3,2.6-46.4-0.3C120.9,73.6,99,66.6,99,66.6z"/>
</g>
<g>
	<path class="st0" d="M2.6,72.4c0.7,0.2,1.3,0.7,1.5,1.4c4.3,2.9,35.2-3.3,43.2-4.2c9-0.8,36.1-2.7,39.1-4.4
		c0.2,0.4,0.5,0.7,0.9,0.9c1.6,8.7,2,17.6,1.3,26.4c-1.3,15.4-5.2,34.2-17.7,44.7c-17.3,14.6-40.6,1.8-52.1-13.9
		C11.2,112.9,7,100.3,4.7,87.4C3.7,82.4,3.1,77.4,2.6,72.4z"/>
	<g>
		<path class="st3" d="M76.2,117.2c-0.9,10.2-3.5,20.7-14.7,23.7c-11.2,3-24.3-2.8-30.6-13.5c-7.4-12.7-12.6-26.5-15.5-41
			c-0.4-2.3-2.9-15.2-2.9-17.5c9.9,1.9,19.5,1.5,28.5,0.7c7.6-0.8,10.8-1.5,18.3-2.8l2.8-0.7l7.4-2.1c1.4,4.3,4.2,17.2,4.9,21.7
			c0.1,0.9,0.3,1.7,0.5,2.5C76.7,97.7,77.1,107.5,76.2,117.2z"/>
		<path class="st5" d="M73,85.5c-1.1,1.7-2,3.5-2.9,5.3c-2.6,5.2-4.9,10.5-7.6,15.6c-5.3,10.1-11.2,19.9-17.4,29.1
			c-0.4,0.6-1.1,1.1-1.4,0.6c-0.1-0.3-0.1-0.6-0.1-1c1.4-8.3,4-16.7,6.2-24.7c4-14,8.5-27.7,13.6-41l1.1,0.1l6.3-1.2
			C71.9,73.1,72.5,80.3,73,85.5z"/>
	</g>
	<path class="st6" d="M2.6,78.2c0,0-5.4-45.1,36.1-50.6C78,22.3,88,65.8,88,65.8s-23.8,9-45,11.5C25.7,79.3,2.6,78.2,2.6,78.2z"/>
</g>
<g>
	<path class="st7" d="M163.6,30.7c-0.2,0.7-0.6,1.6-1.5,2.4c-0.5,0.4-1.2,0.9-2.3,1.3c0.6,0,1.6,0.4,2.1,0.7
		c1.2,0.9,2.4,2.4,2.7,3.9c0.1-1.5,0.9-2.9,1.9-3.8c0.3-0.3,1-0.6,1.7-0.8c-1.2-0.5-2.6-1.1-3.6-2.1
		C164.3,32.2,163.7,31.3,163.6,30.7z"/>
	<path d="M173.3,32.7c-0.6-0.2-1.2-0.2-1.8-0.2c-1.7-0.1-3.9-0.8-5.1-2.1c-1.5-1.6-1.1-4.2-1.2-6.2c0-1-1-1.7-2-1.5
		c-1.6,0.3-1.5,2.2-1.6,3.3c-0.2,1.9-0.4,3.7-1.8,5.2c-1.3,1.4-3.3,1.8-5.1,1.8c-0.5,0-0.9,0.3-1.2,0.6c-0.9,0.8-0.9,2.5,0.6,2.9
		c1.7,0.4,3.6,0.3,5.2,1c1.6,0.6,3.1,2.5,3.5,4.1c0.3,1.2,0.2,2.6,1.5,3.1c1,0.4,2.1,0,2.2-1c0.3-1.7-0.2-4.3,1.2-5.7
		c1.5-1.7,3.8-2.1,5.7-3c0.4-0.2,0.7-0.5,0.8-0.9c0-0.1,0-0.3,0-0.4C174.1,33.1,173.7,32.8,173.3,32.7z M166.5,35.4
		c-1,0.8-1.9,2.2-1.9,3.8c-0.3-1.4-1.5-3-2.7-3.9c-0.5-0.3-1.5-0.7-2.1-0.7c1.1-0.4,1.7-0.9,2.3-1.3c0.9-0.8,1.3-1.7,1.5-2.4
		c0.2,0.6,0.8,1.4,1.1,1.7c1,1,2.4,1.6,3.6,2.1C167.5,34.7,166.9,35.1,166.5,35.4z"/>
</g>
<g>
	<path class="st7" d="M179.1,13.5c-0.2,0.7-0.6,1.6-1.5,2.4c-0.5,0.4-1.2,0.9-2.3,1.3c0.6,0,1.6,0.4,2.1,0.7
		c1.2,0.9,2.4,2.4,2.7,3.9c0.1-1.5,0.9-2.9,1.9-3.8c0.3-0.3,1-0.6,1.7-0.8c-1.2-0.5-2.6-1.1-3.6-2.1C179.9,14.9,179.3,14,179.1,13.5
		z"/>
	<path d="M188.8,15.4c-0.6-0.2-1.2-0.2-1.8-0.2c-1.7-0.1-3.9-0.8-5.1-2.1c-1.5-1.6-1.1-4.2-1.2-6.2c0-1-1-1.7-2-1.5
		c-1.6,0.3-1.5,2.2-1.6,3.3c-0.2,1.9-0.4,3.7-1.8,5.2c-1.3,1.4-3.3,1.8-5.1,1.8c-0.5,0-0.9,0.3-1.2,0.6c-0.9,0.8-0.9,2.5,0.6,2.9
		c1.7,0.4,3.6,0.3,5.2,1c1.6,0.6,3.1,2.5,3.5,4.1c0.3,1.2,0.2,2.6,1.5,3.1c1,0.4,2.1,0,2.2-1c0.3-1.7-0.2-4.3,1.2-5.7
		c1.5-1.7,3.8-2.1,5.7-3c0.4-0.2,0.7-0.5,0.8-0.9c0-0.1,0-0.3,0-0.4C189.6,15.8,189.3,15.5,188.8,15.4z M182.1,18.1
		c-1,0.8-1.9,2.2-1.9,3.8c-0.3-1.4-1.5-3-2.7-3.9c-0.5-0.3-1.5-0.7-2.1-0.7c1.1-0.4,1.7-0.9,2.3-1.3c0.9-0.8,1.3-1.7,1.5-2.4
		c0.2,0.6,0.8,1.4,1.1,1.7c1,1,2.4,1.6,3.6,2.1C183,17.4,182.4,17.8,182.1,18.1z"/>
</g>
<g>
	<path class="st8" d="M167.1,77c5.4-3.5,7.7-5,12.7-9.1"/>
	<path class="st8" d="M166.1,52.7c-2.4,3-4.6,6-7,8.9c-3.8,4.9-7.5,9.8-10.7,15"/>
	<path class="st8" d="M173.8,57.5c-2.2,2.4-4.2,4.8-6.4,7.1c-3.4,3.9-6.9,7.8-10,12"/>
	<path class="st8" d="M151.4,53.1c-1.7,2.8-3.2,5.5-4.9,8.2c-2.6,4.5-5.3,9-7.5,13.7"/>
</g>
<g>
	<path class="st8" d="M7.2,68.8c4.9,4.1,7.3,5.6,12.7,9.1"/>
	<path class="st8" d="M38.6,77.4c-3.2-5.1-7-10.1-10.7-15c-2.4-2.9-4.6-5.9-7-8.9"/>
	<path class="st8" d="M29.5,77.5c-3.1-4.2-6.5-8.1-10-12c-2.1-2.3-4.2-4.7-6.4-7.1"/>
	<path class="st8" d="M48,75.8c-2.2-4.7-4.9-9.2-7.5-13.7c-1.7-2.7-3.3-5.4-4.9-8.2"/>
</g>
</svg>
