<svg xmlns="http://www.w3.org/2000/svg" width="402.6" height="399.6" viewBox="0 0 402.6 399.6"><g id="Layer_2" data-name="Layer 2"><g id="Layer_1-2" data-name="Layer 1"><path d="M96.9,131c22.8-19.7,47.2-38.2,75.2-49.2s60.2-13.8,88-2.4c24.3,10,43.6,30.2,55.4,53.7,13.3,26.5,18.6,59.9,15.2,89.4-37.1-.7-73.1,9.2-110.3,6.1-24.9-2.1-50.6-5-72.3-17.4-11.2-6.4-20.9-15.1-31.6-22.2-9-5.9-37.6-13.5-42.3-22.9C67.5,152.7,88.3,138.6,96.9,131Z" fill="#e95b1a" stroke="#000" stroke-linecap="round" stroke-linejoin="round" stroke-width="3.15"/><path d="M158.4,71.1c.9,10.4,2,21.4,8.4,29.6s19.5,12.7,31.1,13.6c8.4.6,17.2.2,24.6-3.7,9.2-4.8,15.2-14.2,18.2-24.1s3.3-20.4,3.6-30.7c.1-3.1.1-6.5-1.8-8.9s-3.6-2.9-5.8-3.7c-19.4-7.5-40.9-7.2-61.6-5.7C151.6,39.3,157,52.8,158.4,71.1Z" fill="#fef9f7" stroke="#000" stroke-linecap="round" stroke-linejoin="round" stroke-width="3.15"/><path d="M311.4,91.4c-3.3,8.8-7.4,22-15.6,27.4s-17.8,2.2-25.9,1.7-20.5-1.7-25.1-10.4c-12.4-23.7,3.3-61.8,27.4-71.5,3.7-1.5,7.8-2.5,11.7-1.7s7.4,3.3,10.6,5.7C315.3,58.1,320.2,67.5,311.4,91.4Z" fill="#fef9f7" stroke="#000" stroke-linecap="round" stroke-linejoin="round" stroke-width="3.15"/><path d="M128.5,146.5c27-12,60.2-13.2,84,4.6,3,2.3,6.1,4.9,9.8,5.8s8.8-.9,13.1-2.2c23.5-7.2,49.7-.1,69.3,15.2s37.2,46,20,70.8c-8.9,12.8-25.9,15.6-41,17.3-39.1,4.4-79,8.7-117.2-.6-28.3-6.9-56-22.5-73.8-46.9-8.8-12.1-17.1-23.3-8.7-36.2S115.2,152.4,128.5,146.5Z" fill="#f5bfda" stroke="#000" stroke-linecap="round" stroke-linejoin="round" stroke-width="3.15"/><path d="M248.8,12.4c-11.5-2.3-22.4-6.7-33.9-9C167.8-6,120.5,22.2,88.6,58.2,58.6,92.1,34.9,129.8,7,165.7c-2.8,3.7-5.9,7.9-5.4,12.5s3.2,7,5.8,9.8l83.1,90.9c14.9,16.3,28.4,25.7,49,33s42,5.5,63.4,11.1,42.2,21.2,62.1,12.7c13.1-5.6,19.9-19.9,30.5-29.4,16.1-14.7,40.7-16.6,56-31.9,18.4-18.5,17.2-50.2,22-74.3,6.5-31.9,22.8-61.5,26.6-93.9C411.7,5,310.4,25.1,248.8,12.4Zm81.9,210.1c-37.1-.7-73.1,9.2-110.3,6.1-24.9-2.1-50.6-5-72.3-17.4-11.2-6.4-20.9-15.1-31.6-22.2-9-5.9-37.6-13.5-42.3-22.9-6.7-13.4,14.1-27.5,22.7-35.1,22.8-19.7,47.2-38.2,75.2-49.2s60.2-13.8,88-2.4c24.3,10,43.6,30.2,55.4,53.7C328.8,159.6,334.1,193,330.7,222.5Z" stroke="#000" stroke-linecap="round" stroke-linejoin="round" stroke-width="3.15"/><path d="M251.5,366.8l.9-.8c6.4-5.9,13.8-1.9,20.6,1.2,2.2,1,4.5,2.1,5.5,4.2s.6,4.5-.2,6.6c-2.7,6.9-8.8,11.9-14.8,16.3-3.1,2.2-6.7,4.5-10.4,3.5-5.8-1.5-6.7-9.3-6.4-15.3S247.7,371,251.5,366.8Z" stroke="#000" stroke-linecap="round" stroke-linejoin="round" stroke-width="3.15"/><path d="M223.8,167.9a188.6,188.6,0,0,0-9.3,39.1" stroke="#000" stroke-linecap="round" stroke-linejoin="round" stroke-width="3.15"/></g></g></svg>