<?xml version="1.0" encoding="utf-8"?>
<!-- Generator: Adobe Illustrator 27.7.0, SVG Export Plug-In . SVG Version: 6.00 Build 0)  -->
<svg version="1.1" id="Layer_1" xmlns="http://www.w3.org/2000/svg" xmlns:xlink="http://www.w3.org/1999/xlink" x="0px" y="0px"
	 viewBox="0 0 159 35" style="enable-background:new 0 0 159 35;" xml:space="preserve">
<style type="text/css">
	.st0{fill:#02AC64;stroke:#000000;stroke-width:0.3383;stroke-linecap:round;stroke-linejoin:round;}
	.st1{fill:#E95B1A;stroke:#000000;stroke-width:0.3383;stroke-linecap:round;stroke-miterlimit:10;}
	.st2{fill:#FEE200;stroke:#000000;stroke-width:0.3383;stroke-linecap:round;stroke-linejoin:round;}
	.st3{fill:#F5BFDA;stroke:#000000;stroke-width:0.3383;stroke-linecap:round;stroke-miterlimit:10;}
	.st4{fill:#FEF9F7;stroke:#000000;stroke-width:0.3383;stroke-linecap:round;stroke-linejoin:round;}
</style>
<g>
	<path d="M51.4,28.6v-8.3h-4.2v8.3h-4.8V8.4c0-1.7,1.6-3.5,3.3-3.5H53c1.8,0,3.2,1.7,3.2,3.5v20.2H51.4z M51.6,9.1h-4.4v6.6h4.4V9.1
		z"/>
	<path d="M71.4,28.6V13H67v15.6h-4.7V8.5h10.5c1.8,0,3.3,1.4,3.3,3.1v16.9h-4.7V28.6z"/>
	<path d="M85.6,28.6c-1.8,0-3.3-1.4-3.3-3.1V11.2c0-1.8,0.9-2.7,2.3-2.7h6.6v-7H96v27.1H85.6z M91.4,12.6H87v11.6h4.4V12.6z"/>
	<path d="M111.3,19.1V13h-4.4v15.6h-4.7V8.5h10.5c1.8,0,3.3,1.4,3.3,3.1v7.5H111.3z"/>
	<path d="M133.6,21.8h-7.2v2.5h8.7v4.3h-10.8c-1.6,0-2.7-0.9-2.7-2.7V8.5h11.1c1.8,0,3.3,1.4,3.3,3.1V19
		C136,20.8,135.1,21.8,133.6,21.8z M131.3,13h-5v4.8h5V13z"/>
	<path d="M144.9,28.6c-1.8,0-3.3-1.4-3.3-3.1V18c0-1.8,0.9-2.7,2.3-2.7h7.2v-2.4h-8.7V8.5h10.8c1.6,0,2.7,0.9,2.7,2.7v17.4
		C155.9,28.6,144.9,28.6,144.9,28.6z M151.3,19.4h-5v4.8h5V19.4z"/>
</g>
<g id="Layer_2_00000079452663569978673760000016752109796135139761_">
	<g id="Layer_1-2">
		<path class="st0" d="M9,29.1c-0.3,0.9-0.3,1.8,0.3,2.5c1.3,1.6,3,1.8,4.8,2.1c1.4,0.3,3.4-0.4,3-2.2c-0.3-1.2-1.8-1.6-2.9-1.8
			c-0.4-0.1-0.8-0.3-0.9-0.5c-0.1-0.4-0.1-0.7-0.1-1c0.3-1.3,1.2-3.9-0.7-4.6c-1.6-0.5-2.5,3-2.9,4C9.4,28,9.3,28.6,9,29.1z"/>
		<path class="st0" d="M26,25.4c-0.4,1.7-1.4,5.5,0.9,6.1c1.4,0.4,2.9,0,4-0.8c0.4-0.4,0.8-0.8,0.9-1.3c0.3-1.2-0.7-1.8-1.7-1.4
			c-0.4,0.1-0.8,0.4-1.3,0.5c-0.3,0.1-0.5,0.1-0.8-0.1c-0.1-0.3-0.1-0.4-0.1-0.7c0.1-1,1.2-4.3-0.8-4.2C26.5,23.7,26.3,24.5,26,25.4
			z"/>
		<path class="st1" d="M32.9,20.7c-1.3,2-3,3.9-5.1,5c-1.3,0.7-2.7,1-4.2,1.3c-4.2,0.8-8.7,0.5-12.4-1.7c-6.9-4-9-12.8-9.4-20.3
			C1.7,3.8,1.7,2.5,1.7,1.3c0.8,0,1.7,0.1,2.5,0.3c0.1,6.8,1.6,14.1,6.6,18.1c1.6,1.2,3.1,2.3,5,3c2.5,0.9,5.3,0.8,8,0.4
			c8.2-1.6,10.4-9.8,11.9-17.2l2.6,0.4C37.7,11.4,35.9,16.4,32.9,20.7z"/>
		<path class="st2" d="M29.4,4.7c-0.7,3.5-2,6.8-5.2,8.3c-1.8,0.9-4,1.2-6,0.5c-2.7-1-4.3-4-5.1-7c-0.3-1.3-0.5-2.7-0.5-4.2
			c1.3,0.1,2.6,0.1,3.9,0.3c0,0.4,0,0.9,0,1.3c0,1.7,0.3,3.4,1.2,4.8c1.3,2,3.5,2.7,5.5,1.3c1-0.8,1.7-1.8,2.3-3
			C26,6,26.4,5,26.8,3.9C27.7,4.3,28.5,4.6,29.4,4.7z"/>
		<path class="st3" d="M32.4,5.2c-0.4,2.1-0.8,4.3-1.6,6.3c-2,5.1-6.9,8-12.4,6.9C10.6,16.8,8.7,9.1,8.5,2l3.1,0.4l0.9,0.1
			c0,1.4,0.3,2.7,0.5,4.2c0.7,2.9,2.2,5.9,5.1,7c2,0.8,4.2,0.4,6-0.5c3.3-1.6,4.6-4.8,5.2-8.3C30,5,30.6,5.1,31.2,5.2L32.4,5.2z"/>
		<path class="st4" d="M35.6,5.8C34.2,13.2,32,21.4,23.8,23c-2.6,0.5-5.5,0.7-8-0.4c-1.8-0.7-3.4-1.8-5-3C5.8,15.7,4.5,8.2,4.2,1.5
			c1.4,0.1,3,0.3,4.4,0.4c0.1,7.2,2.1,14.9,9.9,16.4c5.5,1,10.4-1.8,12.4-6.9c0.8-2,1.2-4.2,1.6-6.3L35.6,5.8z"/>
	</g>
</g>
</svg>
