<?xml version="1.0" encoding="utf-8"?>
<!-- Generator: Adobe Illustrator 27.7.0, SVG Export Plug-In . SVG Version: 6.00 Build 0)  -->
<svg version="1.1" id="Layer_1" xmlns="http://www.w3.org/2000/svg" xmlns:xlink="http://www.w3.org/1999/xlink" x="0px" y="0px"
	 viewBox="0 0 92 14" style="enable-background:new 0 0 92 14;" xml:space="preserve">
<style type="text/css">
	.st0{fill:#02AC64;stroke:#02AC64;stroke-width:2;}
</style>
<path class="st0" d="M2.3,9.1L2.3,9.1C2,9,1.6,8.8,1.4,8.5l0.8-0.6L1.4,8.5C1.3,8.3,1.1,8.1,1.1,7.8c0-0.3,0.1-0.6,0.3-0.8
	c0.3-0.3,0.7-0.4,1-0.5c0.3,0,0.6,0,0.9,0l0,0l0,0c10.4,2.9,18.2,3.5,24.6,3c6.4-0.5,11.5-2.2,16.8-3.9l0.2-0.1
	C50.5,3.8,56,2,62.9,1.5C69.8,1,78.1,1.7,89.1,4.8l0,0v0C89.4,4.8,89.7,5,90,5.3v0c0.1,0.2,0.3,0.4,0.3,0.8c0,0.4-0.2,0.7-0.4,0.9
	c-0.2,0.2-0.4,0.3-0.6,0.3 M2.3,9.1l87.1-1.7 M2.3,9.1L2.3,9.1c11.1,3.1,19.4,3.8,26.3,3.3c6.9-0.5,12.4-2.3,17.7-4l0.2-0.1
	c5.2-1.7,10.4-3.4,16.7-3.9c6.5-0.6,14.2,0,24.8,3 M2.3,9.1l85.6-1.8 M89.4,7.3c-0.2,0.1-0.4,0.1-0.5,0.1l-0.1-1 M89.4,7.3l-0.6-0.9
	 M88.8,6.4l0.1,1c-0.2,0-0.3,0-0.5,0c-0.2,0-0.3-0.1-0.5-0.1 M88.8,6.4l-0.9,0.9 M88.8,5.7L88.8,5.7L88.8,5.7L88.8,5.7l0-0.3
	L88.8,5.7L88.8,5.7z"/>
</svg>
